<?xml version="1.0" encoding="UTF-8" standalone="no"?>
<!-- Uploaded to: SVG Repo, www.svgrepo.com, Generator: SVG Repo Mixer Tools -->

<svg
   width="800px"
   height="800px"
   viewBox="0 0 48 48"
   version="1.1"
   id="svg14"
   sodipodi:docname="ok-orange-right-hand.svg"
   inkscape:version="1.4 (e7c3feb100, 2024-10-09)"
   xmlns:inkscape="http://www.inkscape.org/namespaces/inkscape"
   xmlns:sodipodi="http://sodipodi.sourceforge.net/DTD/sodipodi-0.dtd"
   xmlns="http://www.w3.org/2000/svg"
   xmlns:svg="http://www.w3.org/2000/svg">
  <sodipodi:namedview
     id="namedview14"
     pagecolor="#ffffff"
     bordercolor="#000000"
     borderopacity="0.25"
     inkscape:showpageshadow="2"
     inkscape:pageopacity="0.0"
     inkscape:pagecheckerboard="0"
     inkscape:deskcolor="#d1d1d1"
     inkscape:zoom="1.49"
     inkscape:cx="399.66443"
     inkscape:cy="400"
     inkscape:window-width="2560"
     inkscape:window-height="1403"
     inkscape:window-x="0"
     inkscape:window-y="0"
     inkscape:window-maximized="1"
     inkscape:current-layer="svg14" />
  <defs
     id="defs1">
    <style
       id="style1">.a,.b,.c{fill:none;stroke:#ff8c00;stroke-linecap:round;stroke-linejoin:round;}.b{stroke-width:0.9706px;}</style>
  </defs>
  <path
     class="a"
     d="M19.1993,7.2525a3.1359,3.1359,0,0,1,6.22.803"
     id="path1" />
  <path
     class="a"
     d="M37.6418,25.05a2.8993,2.8993,0,0,1-.1478,2.83,3.1358,3.1358,0,0,1-5.4315,0"
     id="path2" />
  <path
     class="a"
     d="M31.1994,5.8375A3.1359,3.1359,0,0,1,36.337,9.4348"
     id="path3" />
  <path
     class="a"
     d="M38.74,35.9078A11.5634,11.5634,0,0,1,28.6169,43.44,12.2021,12.2021,0,0,1,17.1787,24.6517"
     id="path4" />
  <path
     class="b"
     d="M29.74,19.32a10.6112,10.6112,0,0,1,7.9007,5.73"
     id="path5" />
  <path
     class="c"
     d="M32.7027,34.1835a3.3348,3.3348,0,0,1,2.3341-2.248,3.1358,3.1358,0,0,1,3.7043,3.9723"
     id="path6" />
  <path
     class="a"
     d="M32.7027,34.1835c-1.1285,2.42-3.6265,3.3194-6.2455,2.7984a5.796,5.796,0,0,1-.4912-11.249c2.5636-.7472,4.7612-.1653,6.0964,2.1472"
     id="path7" />
  <path
     class="a"
     d="M31.1994,5.8375,17.18,24.6518"
     id="path8" />
  <path
     class="a"
     d="M29.74,19.32,36.3359,9.435"
     id="path9" />
  <path
     class="a"
     d="M15.4246,29.0215,19.2,7.2525"
     id="path10" />
  <path
     class="a"
     d="M24.3249,15.0633,25.42,8.0555"
     id="path11" />
  <path
     class="a"
     d="M9.3973,18.9081a3.1359,3.1359,0,1,1,5.7208-2.5707"
     id="path12" />
  <path
     class="a"
     d="M15.81,35.0109,9.3977,18.9078"
     id="path13" />
  <path
     class="a"
     d="M16.8891,20.5765l-1.771-4.2391"
     id="path14" />
  <path
     style="fill:#ff8c00;fill-opacity:1;stroke-width:0.671141"
     d="m 434.76668,715.05271 c -64.57941,-7.826 -120.48036,-46.1882 -150.15829,-103.0466 -25.90344,-49.62708 -29.48627,-106.67159 -9.96444,-158.65041 3.64956,-9.71732 10.20864,-23.37204 15.07401,-31.38112 4.88357,-8.03906 238.97599,-322.071309 243.15315,-326.187121 4.01113,-3.952232 10.50829,-7.891614 16.45775,-9.978733 6.2845,-2.204655 19.6954,-2.251197 26.51007,-0.092 13.22546,4.190425 23.5288,14.409634 28.27903,28.048104 1.61334,4.63211 1.87152,6.41415 1.89505,13.08081 0.0275,7.78483 -0.62022,11.3889 -3.13598,17.44966 -0.68951,1.66108 -26.92169,41.54181 -58.29375,88.62385 -40.13954,60.23995 -57.15527,86.31337 -57.42878,87.9988 -0.46792,2.88346 1.15265,6.70999 3.49046,8.24178 0.88172,0.57773 3.95134,1.37512 6.82137,1.77198 25.0784,3.46776 55.67809,17.30392 78.03703,35.28575 12.05951,9.69867 24.30024,23.16584 33.52156,36.8802 15.64105,23.26206 18.28342,37.22279 10.14758,53.61375 -7.9163,15.94868 -22.45186,25.18734 -39.58187,25.15787 -16.92114,-0.0291 -28.02339,-7.0154 -39.98357,-25.16033 -15.48917,-23.4988 -33.63697,-36.05837 -58.30794,-40.35325 -8.55952,-1.4901 -28.95527,-0.93651 -38.08508,1.03372 -19.67794,4.24653 -33.37817,10.129 -46.46458,19.95052 -20.66323,15.508 -34.5254,37.45759 -40.18109,63.62338 -2.00595,9.28045 -2.14975,29.64033 -0.27998,39.64071 7.06591,37.79158 33.82056,68.64274 70.05454,80.78088 14.23076,4.7672 32.37689,6.90449 47.24962,5.56513 15.34409,-1.38181 25.80209,-4.27809 38.18601,-10.57539 17.16787,-8.72998 31.41984,-23.16385 39.312,-39.81374 8.23962,-17.38295 8.39203,-17.63657 13.98465,-23.27106 8.52394,-8.58777 17.40265,-12.82596 28.21338,-13.46749 21.17437,-1.25653 40.63026,13.71973 45.04587,34.67428 2.16153,10.25766 0.72074,18.4278 -5.79937,32.88591 -24.92181,55.26327 -76.82476,95.41826 -136.56194,105.65185 -17.31508,2.96626 -45.66879,3.90123 -61.20647,2.01831 z"
     id="path15"
     transform="scale(0.06)" />
  <path
     style="fill:#ff8c00;fill-opacity:1;stroke-width:0.671141"
     d="m 279.81136,403.3557 c 0.20321,-0.92281 11.10012,-63.74161 24.21534,-139.59731 26.52595,-153.42051 25.40597,-147.17367 27.20423,-151.73589 5.00622,-12.700885 17.06978,-23.076335 30.84961,-26.53267 5.8372,-1.464122 17.48061,-0.959879 23.00355,0.996218 11.34539,4.018267 20.40097,11.774415 25.20753,21.590362 3.57943,7.3099 4.81202,12.29845 4.79677,19.41359 -0.009,3.99825 -2.71638,23.01038 -8.95426,62.86974 l -8.94197,57.13827 -57.90174,77.76106 c -31.84596,42.76859 -58.33978,78.21408 -58.87515,78.76778 -0.85757,0.88692 -0.92943,0.80706 -0.60391,-0.67115 z"
     id="path16"
     transform="scale(0.06)" />
  <path
     style="fill:#ff8c00;fill-opacity:1;stroke-width:0.671141"
     d="m 203.72384,409.92234 c -22.68343,-56.95058 -41.66238,-105.50959 -42.17545,-107.90892 -1.23124,-5.75782 -0.70841,-15.05039 1.18946,-21.14094 4.11726,-13.21287 15.19144,-24.4486 28.20175,-28.61313 5.54706,-1.77559 15.96235,-2.39037 21.63445,-1.27701 11.52455,2.26212 22.67576,9.98003 28.64124,19.82303 2.73928,4.5198 30.93236,71.78095 30.93236,73.79635 0,0.79879 -5.44847,32.84353 -12.1077,71.21054 -13.51031,77.83923 -13.89755,80.23993 -14.58482,90.4188 l -0.48869,7.23777 z"
     id="path17"
     transform="scale(0.06)" />
</svg>
