<?xml version="1.0" encoding="UTF-8" standalone="no"?>
<!-- Uploaded to: SVG Repo, www.svgrepo.com, Generator: SVG Repo Mixer Tools -->

<svg
   width="800px"
   height="800px"
   viewBox="0 0 48 48"
   version="1.1"
   id="svg14"
   sodipodi:docname="ok-orange-left-hand.svg"
   inkscape:version="1.4 (e7c3feb100, 2024-10-09)"
   xmlns:inkscape="http://www.inkscape.org/namespaces/inkscape"
   xmlns:sodipodi="http://sodipodi.sourceforge.net/DTD/sodipodi-0.dtd"
   xmlns="http://www.w3.org/2000/svg"
   xmlns:svg="http://www.w3.org/2000/svg">
  <sodipodi:namedview
     id="namedview14"
     pagecolor="#ffffff"
     bordercolor="#000000"
     borderopacity="0.25"
     inkscape:showpageshadow="2"
     inkscape:pageopacity="0.0"
     inkscape:pagecheckerboard="0"
     inkscape:deskcolor="#d1d1d1"
     inkscape:zoom="1.49"
     inkscape:cx="399.66443"
     inkscape:cy="400"
     inkscape:window-width="2560"
     inkscape:window-height="1403"
     inkscape:window-x="0"
     inkscape:window-y="0"
     inkscape:window-maximized="1"
     inkscape:current-layer="svg14" />
  <defs
     id="defs1">
    <style
       id="style1">.a,.b,.c{fill:none;stroke:#ff8c00;stroke-linecap:round;stroke-linejoin:round;}.b{stroke-width:0.9706px;}</style>
  </defs>
  <g
     transform="scale(-1,1) translate(-48,0)"
     id="g14">
    <path
       class="a"
       d="M19.1993,7.2525a3.1359,3.1359,0,0,1,6.22.803"
       id="path1" />
    <path
       class="a"
       d="M37.6418,25.05a2.8993,2.8993,0,0,1-.1478,2.83,3.1358,3.1358,0,0,1-5.4315,0"
       id="path2" />
    <path
       class="a"
       d="M31.1994,5.8375A3.1359,3.1359,0,0,1,36.337,9.4348"
       id="path3" />
    <path
       class="a"
       d="M38.74,35.9078A11.5634,11.5634,0,0,1,28.6169,43.44,12.2021,12.2021,0,0,1,17.1787,24.6517"
       id="path4" />
    <path
       class="b"
       d="M29.74,19.32a10.6112,10.6112,0,0,1,7.9007,5.73"
       id="path5" />
    <path
       class="c"
       d="M32.7027,34.1835a3.3348,3.3348,0,0,1,2.3341-2.248,3.1358,3.1358,0,0,1,3.7043,3.9723"
       id="path6" />
    <path
       class="a"
       d="M32.7027,34.1835c-1.1285,2.42-3.6265,3.3194-6.2455,2.7984a5.796,5.796,0,0,1-.4912-11.249c2.5636-.7472,4.7612-.1653,6.0964,2.1472"
       id="path7" />
    <path
       class="a"
       d="M31.1994,5.8375,17.18,24.6518"
       id="path8" />
    <path
       class="a"
       d="M29.74,19.32,36.3359,9.435"
       id="path9" />
    <path
       class="a"
       d="M15.4246,29.0215,19.2,7.2525"
       id="path10" />
    <path
       class="a"
       d="M24.3249,15.0633,25.42,8.0555"
       id="path11" />
    <path
       class="a"
       d="M9.3973,18.9081a3.1359,3.1359,0,1,1,5.7208-2.5707"
       id="path12" />
    <path
       class="a"
       d="M15.81,35.0109,9.3977,18.9078"
       id="path13" />
    <path
       class="a"
       d="M16.8891,20.5765l-1.771-4.2391"
       id="path14" />
  </g>
  <path
     style="fill:#000000;fill-opacity:0;stroke-width:0.671141"
     d="m 319.79866,715.05851 c -11.46654,-1.1321 -19.75114,-2.53475 -29.56519,-5.00561 -54.11489,-13.62437 -99.86669,-51.88622 -122.76857,-102.67035 -4.76781,-10.57246 -6.15006,-15.19579 -6.52121,-21.81208 -1.19114,-21.23359 13.74967,-40.63243 34.69389,-45.04587 14.2601,-3.00494 28.10564,1.5052 39.34198,12.81549 4.59506,4.62533 5.94516,6.52949 8.61204,12.14639 7.16046,15.08115 8.73948,18.0262 12.44225,23.20618 6.31277,8.83124 16.25967,18.35263 24.71226,23.65511 4.88063,3.06171 14.28035,7.52987 19.83807,9.43002 26.36646,9.01453 59.5852,6.92924 85.32186,-5.35605 25.57916,-12.21011 45.42097,-34.93737 54.30002,-62.19651 3.78549,-11.62163 4.76546,-18.55589 4.72299,-33.41986 -0.0309,-10.82262 -0.29003,-14.25611 -1.49742,-19.84205 -7.14947,-33.0767 -28.02969,-59.99531 -57.4826,-74.10611 -7.97642,-3.82147 -17.24243,-6.87418 -27.89534,-9.19017 -10.39528,-2.25999 -30.12666,-2.91749 -39.35281,-1.31134 -24.50673,4.26629 -42.8899,16.94194 -58.13587,40.08613 -12.21445,18.54218 -23.12083,25.39906 -40.44427,25.42745 -16.88709,0.0277 -31.40634,-9.26841 -39.29325,-25.15787 -8.13583,-16.39096 -5.49345,-30.35169 10.14759,-53.61375 16.59627,-24.68271 38.87888,-44.14394 65.40076,-57.11984 5.53691,-2.70895 13.08725,-6.03471 16.77852,-7.39058 8.14011,-2.99 22.27467,-6.67312 29.37931,-7.65553 2.87003,-0.39686 5.93965,-1.19425 6.82137,-1.77198 2.33781,-1.53179 3.95838,-5.35832 3.49046,-8.24178 -0.27351,-1.68543 -17.28924,-27.75885 -57.42878,-87.9988 -31.37206,-47.08204 -57.60425,-86.96277 -58.29374,-88.62385 -2.46939,-5.94902 -3.16325,-9.70299 -3.16325,-17.11409 0,-5.83331 0.32723,-8.43885 1.55931,-12.41611 4.2349,-13.67049 15.19739,-24.788505 28.64203,-29.048377 6.79398,-2.152641 20.21035,-2.102968 26.51007,0.09815 5.93691,2.074352 12.43947,6.013745 16.45775,9.970471 4.17624,4.112259 238.2684,318.144806 243.15316,326.187786 22.83898,37.60545 32.10051,85.12425 25.21437,129.36915 -12.52373,80.46767 -74.18878,144.95171 -153.99569,161.03553 -18.5983,3.7482 -41.02241,4.72243 -61.70207,2.6807 z"
     id="path15"
     transform="scale(0.06)" />
  <path
     style="fill:#000000;fill-opacity:0;stroke-width:0.671141"
     d="m 319.79866,715.05851 c -11.46654,-1.1321 -19.75114,-2.53475 -29.56519,-5.00561 -54.11489,-13.62437 -99.86669,-51.88622 -122.76857,-102.67035 -4.76781,-10.57246 -6.15006,-15.19579 -6.52121,-21.81208 -1.19114,-21.23359 13.74967,-40.63243 34.69389,-45.04587 14.2601,-3.00494 28.10564,1.5052 39.34198,12.81549 4.59506,4.62533 5.94516,6.52949 8.61204,12.14639 7.16046,15.08115 8.73948,18.0262 12.44225,23.20618 6.31277,8.83124 16.25967,18.35263 24.71226,23.65511 4.88063,3.06171 14.28035,7.52987 19.83807,9.43002 26.36646,9.01453 59.5852,6.92924 85.32186,-5.35605 25.57916,-12.21011 45.42097,-34.93737 54.30002,-62.19651 3.78549,-11.62163 4.76546,-18.55589 4.72299,-33.41986 -0.0309,-10.82262 -0.29003,-14.25611 -1.49742,-19.84205 -7.14947,-33.0767 -28.02969,-59.99531 -57.4826,-74.10611 -7.97642,-3.82147 -17.24243,-6.87418 -27.89534,-9.19017 -10.39528,-2.25999 -30.12666,-2.91749 -39.35281,-1.31134 -24.50673,4.26629 -42.8899,16.94194 -58.13587,40.08613 -12.21445,18.54218 -23.12083,25.39906 -40.44427,25.42745 -16.88709,0.0277 -31.40634,-9.26841 -39.29325,-25.15787 -8.13583,-16.39096 -5.49345,-30.35169 10.14759,-53.61375 16.59627,-24.68271 38.87888,-44.14394 65.40076,-57.11984 5.53691,-2.70895 13.08725,-6.03471 16.77852,-7.39058 8.14011,-2.99 22.27467,-6.67312 29.37931,-7.65553 2.87003,-0.39686 5.93965,-1.19425 6.82137,-1.77198 2.33781,-1.53179 3.95838,-5.35832 3.49046,-8.24178 -0.27351,-1.68543 -17.28924,-27.75885 -57.42878,-87.9988 -31.37206,-47.08204 -57.60425,-86.96277 -58.29374,-88.62385 -2.46939,-5.94902 -3.16325,-9.70299 -3.16325,-17.11409 0,-5.83331 0.32723,-8.43885 1.55931,-12.41611 4.2349,-13.67049 15.19739,-24.788505 28.64203,-29.048377 6.79398,-2.152641 20.21035,-2.102968 26.51007,0.09815 5.93691,2.074352 12.43947,6.013745 16.45775,9.970471 4.17624,4.112259 238.2684,318.144806 243.15316,326.187786 22.83898,37.60545 32.10051,85.12425 25.21437,129.36915 -12.52373,80.46767 -74.18878,144.95171 -153.99569,161.03553 -18.5983,3.7482 -41.02241,4.72243 -61.70207,2.6807 z"
     id="path16"
     transform="scale(0.06)" />
  <path
     style="fill:#ff8c00;fill-opacity:1;stroke-width:0.671141"
     d="m 319.79866,715.05851 c -11.46654,-1.1321 -19.75114,-2.53475 -29.56519,-5.00561 -54.11489,-13.62437 -99.86669,-51.88622 -122.76857,-102.67035 -4.76781,-10.57246 -6.15006,-15.19579 -6.52121,-21.81208 -1.19114,-21.23359 13.74967,-40.63243 34.69389,-45.04587 14.2601,-3.00494 28.10564,1.5052 39.34198,12.81549 4.59506,4.62533 5.94516,6.52949 8.61204,12.14639 7.16046,15.08115 8.73948,18.0262 12.44225,23.20618 6.31277,8.83124 16.25967,18.35263 24.71226,23.65511 4.88063,3.06171 14.28035,7.52987 19.83807,9.43002 26.36646,9.01453 59.5852,6.92924 85.32186,-5.35605 25.57916,-12.21011 45.42097,-34.93737 54.30002,-62.19651 3.78549,-11.62163 4.76546,-18.55589 4.72299,-33.41986 -0.0309,-10.82262 -0.29003,-14.25611 -1.49742,-19.84205 -7.14947,-33.0767 -28.02969,-59.99531 -57.4826,-74.10611 -7.97642,-3.82147 -17.24243,-6.87418 -27.89534,-9.19017 -10.39528,-2.25999 -30.12666,-2.91749 -39.35281,-1.31134 -24.50673,4.26629 -42.8899,16.94194 -58.13587,40.08613 -12.21445,18.54218 -23.12083,25.39906 -40.44427,25.42745 -16.88709,0.0277 -31.40634,-9.26841 -39.29325,-25.15787 -8.13583,-16.39096 -5.49345,-30.35169 10.14759,-53.61375 16.59627,-24.68271 38.87888,-44.14394 65.40076,-57.11984 5.53691,-2.70895 13.08725,-6.03471 16.77852,-7.39058 8.14011,-2.99 22.27467,-6.67312 29.37931,-7.65553 2.87003,-0.39686 5.93965,-1.19425 6.82137,-1.77198 2.33781,-1.53179 3.95838,-5.35832 3.49046,-8.24178 -0.27351,-1.68543 -17.28924,-27.75885 -57.42878,-87.9988 -31.37206,-47.08204 -57.60425,-86.96277 -58.29374,-88.62385 -2.46939,-5.94902 -3.16325,-9.70299 -3.16325,-17.11409 0,-5.83331 0.32723,-8.43885 1.55931,-12.41611 4.2349,-13.67049 15.19739,-24.788505 28.64203,-29.048377 6.79398,-2.152641 20.21035,-2.102968 26.51007,0.09815 5.93691,2.074352 12.43947,6.013745 16.45775,9.970471 4.17624,4.112259 238.2684,318.144806 243.15316,326.187786 22.83898,37.60545 32.10051,85.12425 25.21437,129.36915 -12.52373,80.46767 -74.18878,144.95171 -153.99569,161.03553 -18.5983,3.7482 -41.02241,4.72243 -61.70207,2.6807 z"
     id="path17"
     transform="scale(0.06)" />
  <path
     style="fill:#ff8c00;fill-opacity:1;stroke-width:0.671141"
     d="m 554.49814,506.34558 c -0.5697,-9.957 -0.7594,-11.13818 -14.55262,-90.61256 -6.65124,-38.32343 -12.09317,-70.33195 -12.09317,-71.13005 0,-2.01446 28.23201,-69.34203 30.9735,-73.86547 2.71123,-4.47351 8.38794,-10.26392 13.1973,-13.46163 7.77423,-5.16903 15.9811,-7.30093 26.14106,-6.79066 10.96663,0.55078 20.05956,4.54055 27.95605,12.26647 5.00812,4.89994 8.40303,10.34119 10.8912,17.4561 1.65079,4.72039 1.87548,6.3273 1.876,13.41638 4.2e-4,5.58341 -0.33192,9.08298 -1.0835,11.4094 -0.80719,2.49855 -79.17395,199.87813 -82.32864,207.35821 -0.36536,0.86632 -0.70022,-1.20554 -0.97718,-6.04619 z"
     id="path18"
     transform="scale(0.06)" />
  <path
     style="fill:#ff8c00;fill-opacity:1;stroke-width:0.671141"
     d="m 461.39607,326.11434 -58.58896,-78.62098 -8.94161,-57.13594 c -9.40285,-60.08318 -9.92228,-64.82492 -7.95279,-72.59896 3.68482,-14.54489 14.4026,-26.101225 29.0032,-31.272412 5.52295,-1.956097 17.16635,-2.46034 23.00355,-0.996218 14.43007,3.619433 27.00887,14.93079 31.43608,28.26856 0.73514,2.21476 4.68055,23.3557 8.76758,46.97987 4.08703,23.62416 15.26232,88.10353 24.83398,143.2875 9.57167,55.18396 17.31862,100.41887 17.21547,100.52203 -0.10315,0.10314 -26.55258,-35.1919 -58.7765,-78.43345 z"
     id="path19"
     transform="scale(0.06)" />
</svg>
