<?xml version="1.0" encoding="UTF-8" standalone="no"?>
<svg
   fill-rule="evenodd"
   clip-rule="evenodd"
   image-rendering="optimizeQuality"
   shape-rendering="geometricPrecision"
   text-rendering="geometricPrecision"
   viewBox="0 0 511.999 288.047"
   version="1.1"
   id="svg6"
   sodipodi:docname="point-orange-right-hand.svg"
   inkscape:version="1.4 (e7c3feb100, 2024-10-09)"
   xmlns:inkscape="http://www.inkscape.org/namespaces/inkscape"
   xmlns:sodipodi="http://sodipodi.sourceforge.net/DTD/sodipodi-0.dtd"
   xmlns="http://www.w3.org/2000/svg"
   xmlns:svg="http://www.w3.org/2000/svg">
  <defs
     id="defs6" />
  <sodipodi:namedview
     id="namedview6"
     pagecolor="#ffffff"
     bordercolor="#000000"
     borderopacity="0.25"
     inkscape:showpageshadow="2"
     inkscape:pageopacity="0.0"
     inkscape:pagecheckerboard="0"
     inkscape:deskcolor="#d1d1d1"
     inkscape:zoom="4.1382136"
     inkscape:cx="256.02835"
     inkscape:cy="144.0235"
     inkscape:window-width="2560"
     inkscape:window-height="1403"
     inkscape:window-x="0"
     inkscape:window-y="0"
     inkscape:window-maximized="1"
     inkscape:current-layer="svg6" />
  <path
     fill="#ff8c00"
     d="M0 57.141c0-5.635 4.569-10.204 10.204-10.204 3.764 0 9.708.194 15.963.397 14.801.481 31.642 1.029 42.354-1.47 7.034-1.642 17.702-7.671 30.032-14.64 37.144-20.995 87.503-49.456 129.409-15.45a110 110 0 0 1 4.533 3.86h238.468c11.237 0 21.531 4.212 29.007 11.308 7.428 7.052 12.029 16.856 12.029 28.157 0 11.302-4.598 21.107-12.028 28.16-7.476 7.094-17.767 11.307-29.008 11.307h-89.025a34 34 0 0 1 3.401 2.364c7.339 5.81 11.834 14.197 11.834 25.412 0 11.109-4.519 20.739-11.819 27.657a39.6 39.6 0 0 1-8.197 5.97c3.765 1.254 7.22 2.974 10.245 5.225 7.45 5.547 11.998 13.7 11.998 25.119 0 11.312-4.563 20.658-11.964 27.301-7.296 6.551-17.273 10.289-28.15 10.464 6.047 4.786 9.648 11.797 9.648 21.941 0 10.863-4.389 19.791-11.502 26.133-7.155 6.382-17.001 9.93-27.7 9.93h-66.803c-74.423 6.004-96.487-2.057-145.535-19.984-9.966-3.642-21.113-7.717-34.844-12.408-23.211-7.93-45.129-7.922-69.729-7.912v.04h-2.617C4.569 245.818 0 241.249 0 235.614zM281.27 88.37h189.693c16.962 0 30.84-12.308 30.84-29.27 0-16.963-13.884-29.271-30.84-29.271H241.355c1.109 1.586 2.301 3.358 3.725 5.448zm-38.247 143.764c-3.943 12.982 1.685 32.801 18.517 43.745-88.261 7.175-99.788-5.89-175.723-31.834-25.572-8.737-49.013-8.431-75.613-8.431V57.141c17.571 0 44.353 2.445 60.629-1.353 32.235-7.523 108.613-81.334 160.352-22.819l49.677 72.881c7.885 11.57 6.892 9.906 7.455 23.837l2.832 70.205c1.398 31.253-19.913 45.008-41.752 22.685-7.419-9.536-12.922-20.011-15.679-32.023-3.252-14.171-3.582-30.01-1.385-47.469a5.47 5.47 0 0 0-2.215-5.258l-20.863-15.061a6 6 0 0 0-.37-.267l-17.19-12.408a5.473 5.473 0 1 0-6.396 8.884l11.978 8.647c-11.906 10.611-25.392 18.388-41.108 22.15-17.985 4.305-39.071 3.427-64.281-4.36a5.48 5.48 0 0 0-3.22 10.474c27.183 8.396 50.183 9.282 70.032 4.53 18.462-4.42 34.056-13.662 47.658-26.239l14.748 10.646c-1.94 17.536-1.419 33.607 1.926 48.179 3.389 14.769 10.4 27.555 19.991 39.132m51.14-1.694h35.569c15.949 0 28.998 3.63 28.998 19.58s-13.056 25.859-28.998 25.859h-56.873l-.047-.047c-10.501-10.078-21.555-22.941-20.413-37.755 3.582 2.231 7.161 3.775 10.664 4.678 6.903 1.779 13.442 1.114 19.22-1.666 4.705-2.265 8.74-5.876 11.88-10.649m5.417-12.558h58.907c16.89 0 30.709-10.679 30.709-27.569s-13.83-22.859-30.709-22.859H300.02l1.291 31.999c.305 6.8-.328 12.992-1.731 18.429m-.067-62.987h57.333c16.566 0 30.123-11.985 30.123-28.553 0-16.567-13.562-23.843-30.123-23.843h-65.948c3.307 4.873 4.965 7.512 6.089 11.114 1.088 3.476 1.18 6.337 1.349 11.651l.144 4.025z"
     id="path1" />
  <path
     fill="#ff8c00"
     d="m208.423 277.511-5.8-.347c-13.398-.802-26.314-2.89-38.905-6.291-10.225-2.762-19.047-5.73-41.805-14.067-32.837-12.029-41.493-14.932-50.505-16.94-14.085-3.136-27.058-4.252-49.478-4.256l-11.539-.002V57.272l2.719.005c1.495.003 7.612.164 13.592.358 26.253.85 38.811.149 47.346-2.647 6.573-2.153 11.966-4.904 35.42-18.067 29.27-16.427 47.137-23.456 65.366-25.714 4.087-.506 12.41-.568 15.949-.118 14.55 1.85 26.377 7.795 37.056 18.626l3.224 3.271 26.915 39.51c15.785 23.172 27.37 40.41 28.016 41.685.611 1.207 1.257 2.927 1.452 3.866.192.93.462 4.41.598 7.733 2.053 49.883 2.94 73.09 2.944 76.965.006 7.815-1.126 13.494-3.785 18.99-2.646 5.473-6.697 9.283-11.596 10.906-1.704.565-2.318.642-5.08.638-3.72-.006-5.708-.463-9.187-2.111a36.9 36.9 0 0 1-14.324-12.043c-10.287-14.562-14.806-28.59-15.8-49.06-.322-6.61-.053-15.12.686-21.69.216-1.928.405-4.483.419-5.68.044-3.689 1.613-2.298-21.096-18.692-10.904-7.872-20.205-14.47-20.67-14.665-1.883-.787-4.358-.296-5.903 1.17-2.09 1.982-2.316 5.45-.492 7.528.396.451 3.378 2.738 6.626 5.08 3.247 2.343 5.959 4.348 6.026 4.456.257.417-6.877 6.05-11.794 9.312-12.543 8.321-25.487 13.033-40.511 14.746-13.432 1.531-30.068-.094-46.07-4.5-8.154-2.246-7.81-2.175-9.181-1.89-4.097.85-5.838 5.813-3.173 9.046.94 1.14 1.558 1.434 5.396 2.568 9.89 2.92 20.266 4.963 30.796 6.066 4.7.491 19.022.413 23.44-.13 22.494-2.758 40.978-11.089 58.192-26.226l2.492-2.19 3.55 2.573c1.952 1.415 5.207 3.77 7.234 5.234 3.112 2.247 3.684 2.757 3.68 3.28-.003.34-.17 2.357-.37 4.484-.201 2.126-.43 7.129-.51 11.116-.575 28.67 5.607 49.044 20.768 68.446l2.123 2.717-.37 1.39c-.205.766-.5 2.714-.656 4.329-.454 4.698.244 10.104 1.992 15.428.996 3.033 3.793 8.51 5.729 11.216 2.667 3.73 7.192 8.226 10.543 10.477.905.608.92.637.362.757-.636.136-8.51.68-18.099 1.251-5.67.338-30.314.657-33.952.44"
     style="fill:#fff;stroke-width:.24165"
     id="path2" />
  <path
     fill="#ff8c00"
     d="M206.007 277.404c-15.904-.873-29.414-2.99-43.111-6.757-9.566-2.63-17.577-5.3-34.933-11.64-41.332-15.099-47.74-17.251-57.767-19.408-13.171-2.833-23.57-3.739-45.004-3.923l-14.801-.126V57.27l2.719.005c1.495.003 7.612.164 13.592.358 18.202.59 28.426.45 36.61-.502 11.535-1.342 15.974-3.245 42.893-18.394 26.21-14.75 40.624-21.227 55.877-25.108 8.06-2.051 14.136-2.857 21.451-2.846 7.39.012 13.048.888 19.546 3.026 3.346 1.1 9.158 3.84 12.352 5.82 4.635 2.875 10.61 7.858 14.072 11.736 1.29 1.445 10.156 14.255 28.338 40.941 14.553 21.361 26.98 39.739 27.616 40.839 1.63 2.823 2.093 4.507 2.378 8.646.428 6.208 3.157 76.325 3.156 81.073-.002 6.647-.806 11.488-2.737 16.47-4.885 12.608-15.489 17.244-26.984 11.798-5.19-2.458-10.335-6.661-13.6-11.11-7.513-10.239-12.217-20.934-14.58-33.156-2.202-11.384-2.615-24.52-1.207-38.373.693-6.816.7-7.162.16-8.38-.32-.725-.988-1.518-1.95-2.32-1.461-1.215-35.664-25.975-38.303-27.727-2.478-1.646-5.201-1.429-7.204.574-1.322 1.323-1.776 2.652-1.575 4.613.244 2.382.407 2.53 11.91 10.86l2.13 1.543-.838.72c-18.007 15.484-36.895 23.023-59.56 23.776-11.71.39-25.837-1.533-39.51-5.375-6.412-1.802-6.488-1.817-7.896-1.531-3.548.719-5.406 4.518-3.847 7.867 1.061 2.28 2.259 2.814 11.864 5.287 12.498 3.219 22.199 4.633 33.469 4.88 18.681.409 34.053-2.923 49.78-10.79 8.24-4.122 17.016-10.145 23.957-16.443l1.881-1.707 7.077 5.107c3.893 2.809 7.173 5.196 7.288 5.305.12.113.015 2.382-.24 5.232-.63 7.005-.632 21.822-.006 27.733 1.5 14.162 4.32 24.492 9.503 34.813 2.923 5.82 6.656 11.7 10.777 16.974l2.123 2.716-.358 1.392c-1.91 7.42-.331 17.627 4.02 25.992 2.876 5.526 7.479 10.92 12.493 14.638 1.718 1.274 1.904 1.48 1.421 1.581-.66.14-9.177.727-18.074 1.249-7.48.438-30.587.649-36.368.331"
     style="fill:#fff;stroke-width:.24165"
     id="path3" />
  <path
     fill="#ff8c00"
     d="M206.007 277.404c-9.456-.519-18.08-1.48-26.098-2.909-14.117-2.515-26.27-6.116-50.505-14.964-40.668-14.848-48.89-17.633-58.202-19.712-13.725-3.065-27.12-4.198-49.756-4.206l-11.055-.004V57.271h2.356c1.296 0 7.793.174 14.439.387 12.821.411 27.337.35 32.622-.138 14.253-1.315 18.06-2.858 46.518-18.854 13.923-7.826 22.597-12.35 30.753-16.04 14.165-6.407 26.802-10.175 38.721-11.544 3.867-.444 12.143-.38 15.829.122 14.018 1.912 25.513 7.746 36.005 18.274l3.263 3.273 18.599 27.303c33.42 49.059 35.668 52.394 36.636 54.359 1.428 2.896 1.622 4.262 2.03 14.266 3.157 77.34 3.135 76.64 2.444 81.405-2.761 19.044-15.013 27.835-29.337 21.05-5.371-2.545-10.357-6.668-13.821-11.432-10.208-14.035-15.012-28.288-16.182-48.01-.456-7.679-.251-14.414.745-24.575.283-2.885.445-5.617.36-6.074-.256-1.362-1.388-2.626-4.287-4.788-2.61-1.946-29.475-21.356-34.69-25.062-2.534-1.802-3.44-2.21-4.905-2.207-1.56.002-2.686.484-3.852 1.65-1.77 1.77-2.176 4.149-1.098 6.422.506 1.065 1.288 1.707 8.146 6.687 2.756 2.001 5.063 3.724 5.127 3.827.137.222-2.803 2.749-6.392 5.494-23.745 18.163-51.6 23.316-85.165 15.756a231 231 0 0 1-8.941-2.25c-6.088-1.685-5.737-1.62-7.101-1.327-3.516.754-5.357 4.553-3.813 7.869.827 1.776 1.851 2.441 5.418 3.518 22.323 6.742 44.27 8.445 63.113 4.899 16.515-3.109 31.8-10.286 45.793-21.503 1.86-1.491 4.114-3.384 5.008-4.207l1.625-1.495 7.256 5.25c6.312 4.568 7.255 5.332 7.25 5.876-.003.344-.166 2.365-.363 4.492-.519 5.598-.718 17.48-.381 22.715 1.066 16.562 4.027 28.323 10.194 40.476 2.969 5.852 6.494 11.333 10.893 16.938l1.63 2.077-.514 2.394c-.678 3.156-.716 8.777-.085 12.302 1.175 6.558 3.661 12.464 7.578 18 1.99 2.811 6.488 7.411 9.185 9.39 1.74 1.278 1.93 1.488 1.45 1.59-.663.14-9.201.73-18.075 1.248-7.483.437-30.602.647-36.368.33"
     style="fill:#fff;stroke-width:.24165"
     id="path4" />
  <path
     fill="#ff8c00"
     d="M207.94 277.488c-12.334-.451-26.062-2.257-37.577-4.943-12.079-2.818-21.586-5.9-47.967-15.549-39.431-14.421-46.572-16.669-59.809-18.826-10.924-1.78-18.781-2.3-37.516-2.485l-14.68-.144V57.27l2.719.006c1.495.004 7.72.164 13.834.357 27.094.855 38.444.167 47.605-2.885 6.01-2.002 12.29-5.158 29.551-14.847 16.416-9.214 24.333-13.362 33.005-17.29 14.082-6.38 26.947-10.215 38.696-11.537 3.896-.438 12.162-.37 15.828.13 14.016 1.91 25.475 7.725 36.008 18.27 3.064 3.068 3.576 3.728 8.358 10.76 2.802 4.12 8.138 11.95 11.857 17.399 14.153 20.738 34.306 50.366 35.913 52.8 3.801 5.756 3.922 6.251 4.399 18.085.201 5.006.917 22.64 1.591 39.186 1.331 32.71 1.444 38.295.851 42.379-2.18 15.03-10.3 23.96-21.161 23.27-2.841-.18-5.237-.834-8.21-2.24-5.328-2.518-10.33-6.658-13.787-11.412-10.212-14.04-15.012-28.28-16.182-48.01-.452-7.623-.24-14.697.739-24.635.274-2.784.429-5.449.343-5.92-.28-1.558-1.228-2.578-5.011-5.398-8.544-6.368-35.208-25.475-36.407-26.088-2.853-1.46-6.064-.345-7.426 2.578-.738 1.586-.735 3.047.01 4.648.52 1.116.984 1.546 4.432 4.108a423 423 0 0 0 6.415 4.673c1.41.997 2.568 1.885 2.574 1.973.012.199-4.498 3.947-7.119 5.916-9.063 6.81-19.452 12.072-29.562 14.974-18.957 5.441-39.147 4.878-63.183-1.762-7.242-2.001-7.255-2.002-9.417-.851-3.703 1.972-3.725 7.523-.038 9.511 2.098 1.132 13.37 4.117 20.764 5.499 15.787 2.95 30.984 3.2 44.826.733 18.458-3.288 36.214-12.154 51.168-25.551l1.991-1.784 7.28 5.276 7.28 5.276-.167 2.055c-.092 1.13-.266 3.196-.387 4.592-.41 4.722-.547 16.103-.254 20.902 1.418 23.17 7.116 39.175 20.02 56.233l2.688 3.553-.501 2.368c-.664 3.14-.703 8.796-.084 12.275 1.157 6.502 3.696 12.531 7.576 17.987 1.973 2.776 6.465 7.37 9.18 9.39 1.73 1.287 1.925 1.503 1.45 1.604-1.196.253-17.263 1.24-25.804 1.586-5.29.214-21.644.26-26.702.075M261.53 59.144l-19.806-29.059 115.868-.06c126.22-.066 117.776-.154 122.688 1.27 2.705.784 6.454 2.553 8.963 4.231 2.512 1.68 5.93 5.149 7.696 7.811 4.873 7.346 6.033 16.623 3.153 25.202-3.31 9.864-12.387 17.268-23.521 19.19-2.693.465-4.512.473-98.99.473h-96.246zM299.545 152.18c-.083-1.496-.31-6.797-.505-11.781s-.468-11.925-.608-15.425-.411-7.269-.605-8.376c-.651-3.737-2.054-6.959-4.921-11.306l-1.718-2.604 36.066.075 36.067.076 2.939.654c6.243 1.388 10.574 3.484 14.065 6.806 2.924 2.784 4.797 6.036 5.853 10.164.734 2.87.794 8.355.124 11.478-2.756 12.865-13.401 21.694-27.392 22.717-1.694.124-15.71.229-31.148.233l-28.068.007zM299.987 216.948c1.335-6.5 1.686-11.603 1.355-19.713-.139-3.416-.412-10.288-.606-15.272-.195-4.984-.421-10.286-.504-11.78l-.15-2.72 29.324.005c29.28.004 34.168.113 38.627.868 11.137 1.887 18.116 7.356 20.317 15.923.635 2.472.857 6.843.487 9.613-1.578 11.811-9.862 20.185-22.93 23.179l-2.344.537-31.87.076-31.868.077z"
     style="fill:#fff;stroke-width:.24165"
     id="path5" />
  <path
     fill="#ff8c00"
     d="M269.292 272.038c-11.274-11.547-16.768-21.784-16.768-31.242 0-1.258.049-2.287.108-2.287s1.228.59 2.598 1.31c2.799 1.474 6.335 2.767 9.383 3.432 1.567.342 3.013.443 6.156.431 3.62-.014 4.383-.09 6.422-.636 1.272-.342 3.124-.96 4.116-1.372 4.071-1.695 9.038-5.702 11.694-9.434l1.208-1.698 21.144.077c18.198.067 21.52.134 23.836.48 10.279 1.534 16.125 5.35 18.314 11.955 2.182 6.583.98 14.91-3.01 20.857-1.516 2.26-5.1 5.676-7.52 7.168-3.608 2.223-8.285 3.825-12.827 4.395-1.265.159-12.737.249-31.62.249H272.89z"
     style="fill:#fff;stroke-width:.24165"
     id="path6" />
  <path
     style="fill:#000000;fill-opacity:1;stroke-width:0.24165"
     d="m 212.53132,287.77918 c -21.26133,-0.49587 -37.85716,-3.06754 -57.75439,-8.94954 -7.94066,-2.34742 -17.69441,-5.70558 -37.0933,-12.77107 C 85.515579,254.34228 77.19276,251.55971 68.967641,249.7713 55.130898,246.76273 43.177856,245.76283 21.013922,245.75981 8.4980558,245.7581 7.9716977,245.71351 5.4634923,244.44251 4.0873364,243.74515 2.2935677,242.02424 1.4600664,240.60167 0.02136006,238.14619 0.12055765,245.14397 0.1236932,146.32882 0.12609837,70.531644 0.1800453,55.741142 0.45790945,54.697561 1.2472866,51.732876 3.245866,49.368162 6.1081117,48.012258 7.67703,47.269029 7.858958,47.239795 11.407539,47.160705 c 2.021103,-0.04505 7.077632,0.03991 11.236732,0.188796 19.702564,0.7053 32.154648,0.591031 39.885068,-0.366013 9.511959,-1.177604 13.220898,-2.798038 37.151354,-16.231434 14.598257,-8.194748 17.835797,-9.934217 25.977397,-13.957157 13.74722,-6.792798 24.39145,-10.8994502 35.37201,-13.6468683 23.13371,-5.7882326 42.98408,-3.18839673 60.13533,7.8760233 2.86019,1.845133 5.08282,3.511828 8.48604,6.363484 l 2.89287,2.424017 121.9949,0.06229 121.99489,0.06229 2.62881,0.558429 c 10.37847,2.204662 19.13555,7.616671 25.0657,15.490967 2.10317,2.792674 4.61629,7.561753 5.66677,10.753713 3.13275,9.519107 2.50598,19.969981 -1.73244,28.887332 -5.35074,11.257553 -15.43323,18.989657 -28.73561,22.036917 l -2.40993,0.552062 -47.54467,0.07328 c -26.14957,0.0403 -47.54467,0.156594 -47.54467,0.258428 0,0.101831 0.73401,0.664644 1.63113,1.250691 2.40737,1.572628 6.74449,5.989338 8.4218,8.576408 3.795,5.8533 5.52869,13.26927 4.90434,20.97869 -0.55676,6.87497 -2.67942,12.90737 -6.54831,18.60987 -2.28301,3.36496 -6.87492,7.81563 -10.3961,10.07629 -1.55263,0.99681 -2.82811,1.86772 -2.83441,1.93536 -0.006,0.0676 0.70148,0.37868 1.57287,0.69119 2.39149,0.85768 5.956,2.74557 8.1405,4.31148 6.41194,4.59629 10.49933,11.07862 11.92891,18.91854 0.57573,3.15736 0.57482,9.64163 -0.002,12.92828 -2.8601,16.3007 -16.16386,28.33354 -33.94307,30.70044 -1.41366,0.18819 -3.24993,0.34429 -4.08061,0.34689 -0.83067,0.003 -1.51031,0.0628 -1.51031,0.13381 0,0.071 0.7091,0.79241 1.57575,1.60313 5.94588,5.56209 8.81243,14.18247 7.86105,23.64008 -0.84582,8.40855 -3.81341,15.01952 -9.31597,20.75352 -5.46108,5.69076 -11.91022,9.1726 -20.52347,11.08043 l -2.9166,0.646 -37.5766,0.14553 c -32.27054,0.12498 -38.24199,0.20276 -42.28878,0.55081 -7.12878,0.61314 -17.22269,1.12899 -24.76914,1.26586 -3.72141,0.0675 -7.74489,0.15497 -8.94106,0.19443 -1.19617,0.0394 -5.60024,-0.008 -9.78683,-0.10581 z m 21.74852,-10.12563 c 10.47345,-0.42615 26.95032,-1.494 27.22044,-1.76414 0.055,-0.055 -0.85462,-0.78643 -2.02141,-1.62537 -2.6284,-1.88984 -7.45539,-6.72879 -9.3144,-9.33748 -3.66291,-5.14004 -6.15664,-10.73446 -7.46721,-16.75184 -0.47939,-2.20112 -0.5506,-3.19375 -0.53731,-7.49116 0.0128,-4.1337 0.0949,-5.25756 0.49582,-6.78852 l 0.4805,-1.8347 -1.53178,-1.91088 c -3.90631,-4.87309 -7.88463,-10.95476 -10.69689,-16.35239 -5.97426,-11.46653 -9.09153,-23.03826 -10.43106,-38.72153 -0.4491,-5.25811 -0.36854,-17.41572 0.15691,-23.68171 0.2452,-2.92397 0.45271,-5.63397 0.46114,-6.02223 0.0142,-0.65293 -0.53582,-1.10468 -7.32791,-6.01901 -5.09719,-3.68801 -7.43528,-5.24598 -7.64421,-5.09368 -0.16555,0.12067 -1.5914,1.34757 -3.16857,2.72643 -16.59918,14.51213 -35.37879,22.88365 -57.35968,25.56964 -4.45978,0.54497 -18.77267,0.61465 -23.44006,0.11412 -10.52934,-1.12916 -21.50861,-3.32141 -31.052048,-6.20021 -4.198521,-1.26649 -5.264204,-2.12107 -5.92553,-4.75173 -0.647961,-2.57748 1.064343,-5.35239 3.792093,-6.14537 l 1.389525,-0.40395 2.788459,0.78068 c 12.460341,3.48848 20.818761,5.15322 30.578221,6.09023 4.73179,0.4543 16.12014,0.381 20.53114,-0.13215 19.38494,-2.25514 34.90272,-8.98679 50.34618,-21.84027 1.50258,-1.25059 2.69875,-2.3668 2.65815,-2.48047 -0.0406,-0.11367 -2.52052,-1.97072 -5.51094,-4.12679 -6.85249,-4.94058 -7.41354,-5.40201 -8.0298,-6.60391 -1.39056,-2.71204 0.15799,-6.42461 3.08232,-7.38973 1.37464,-0.45367 3.29107,-0.19781 4.51004,0.60214 3.50424,2.29965 38.19747,27.5271 39.21956,28.5188 1.90908,1.85232 1.91492,1.92185 0.94241,11.23673 -0.62676,6.0032 -0.6422,22.37381 -0.0262,27.73099 1.87281,16.2862 5.75595,27.40113 13.78158,39.44776 2.80299,4.20737 4.39296,6.14125 6.74544,8.20453 2.992,2.62417 5.95429,4.62788 8.97547,6.07106 3.74855,1.79065 5.65553,2.23738 9.57708,2.24351 2.8969,0.005 3.4788,-0.067 5.19548,-0.63883 8.79486,-2.92953 14.26995,-12.08452 15.40087,-25.75198 0.26265,-3.17416 0.16116,-6.67422 -1.11094,-38.3142 -0.76999,-19.15151 -1.49929,-37.59386 -1.62065,-40.983 -0.34462,-9.62418 -0.70617,-11.56855 -2.80244,-15.07158 -0.4876,-0.8148 -12.91142,-19.152127 -27.60851,-40.749611 l -26.72196,-39.268152 -3.62475,-3.6254 C 216.93891,18.420739 205.07906,12.54101 190.78281,10.84835 c -3.61885,-0.428467 -11.96649,-0.35961 -16.06974,0.132555 -11.43629,1.37173 -24.0155,5.179954 -37.94394,11.48713 -8.40072,3.804074 -16.44349,8.01986 -32.73873,17.160676 C 86.053951,49.712598 81.338919,52.108429 74.955713,54.402305 66.32488,57.503893 53.530308,58.288738 26.219043,57.391914 20.304655,57.197702 14.242257,57.036696 12.747046,57.03412 l -2.718564,-0.0047 v 89.28974 89.28973 l 1.751964,0.009 c 10.0182,0.0532 29.187753,0.52945 33.408135,0.83004 13.525452,0.96335 23.942227,2.73952 35.039274,5.97459 4.660941,1.35878 16.472837,5.48928 34.918445,12.21061 28.92541,10.54003 34.58894,12.49914 43.90053,15.18585 17.02923,4.91352 30.11733,6.99727 49.73891,7.9189 3.89507,0.18295 20.25217,0.12866 25.4941,-0.0847 z m 102.7494,-2.36554 c 6.59476,-1.51004 11.17311,-3.97937 15.20758,-8.20221 4.40797,-4.61378 6.48285,-10.02589 6.48968,-16.92766 0.004,-3.91437 -0.43405,-6.24105 -1.66951,-8.87045 -2.70921,-5.76591 -8.23529,-9.01347 -17.74737,-10.42975 -2.30633,-0.3434 -5.73027,-0.41393 -23.95615,-0.49349 l -21.26522,-0.0928 -1.42943,1.95091 c -6.19171,8.45054 -16.40024,12.66071 -26.663,10.99627 -3.84836,-0.62416 -9.30429,-2.63764 -12.31875,-4.5462 -0.56222,-0.35596 -1.14965,-0.6472 -1.30539,-0.6472 -0.43969,0 -0.0956,5.48015 0.52259,8.32311 1.67862,7.71988 6.41388,15.5889 14.62844,24.30938 1.55992,1.656 3.39066,3.52452 4.06827,4.15225 l 1.23206,1.14136 30.93122,-0.0634 30.93122,-0.0634 z m 28.89721,-57.9767 c 11.16013,-2.57014 18.83424,-8.88003 21.95686,-18.05357 1.27099,-3.73387 1.73848,-9.62368 1.06587,-13.42876 -1.57935,-8.9348 -7.65405,-14.70295 -18.10404,-17.19052 -5.2781,-1.25643 -4.88537,-1.24283 -38.99905,-1.35056 l -31.83741,-0.10053 v 1.58478 c 0,0.87162 0.28143,8.30108 0.62542,16.50989 0.81047,19.3414 0.68362,24.49796 -0.75528,30.70779 -0.19439,0.83892 -0.35344,1.63072 -0.35344,1.75955 0,0.15044 11.47672,0.20638 32.07906,0.15636 31.76632,-0.0771 32.10093,-0.0829 34.32201,-0.59443 z M 364.19,154.23848 c 8.39323,-2.24754 14.3878,-6.36954 18.49148,-12.71517 1.65849,-2.56458 2.67746,-4.89767 3.54397,-8.11459 0.56372,-2.09279 0.62433,-2.75154 0.63525,-6.90486 0.0106,-4.0422 -0.0534,-4.83114 -0.53506,-6.59619 -1.43838,-5.27031 -4.29756,-9.2218 -8.86808,-12.25607 -3.15182,-2.09241 -6.24871,-3.31985 -11.11591,-4.40573 l -2.8998,-0.64695 -36.30794,-0.0771 c -19.96936,-0.0424 -36.30794,-0.023 -36.30794,0.0431 0,0.0661 0.80625,1.3472 1.79165,2.84687 3.36522,5.1215 4.72013,8.57715 5.20785,13.28252 0.14214,1.37129 0.41752,6.67984 0.61198,11.79678 0.19445,5.11694 0.48492,12.70483 0.64547,16.86197 l 0.29191,7.55845 31.42938,-0.0746 c 31.36197,-0.0744 31.43359,-0.0757 33.38579,-0.59846 z M 477.98403,87.801176 c 6.25303,-1.475736 10.94035,-3.951241 15.1409,-7.996351 5.81797,-5.602684 8.69416,-12.418842 8.68684,-20.586719 -0.005,-5.167216 -0.87257,-8.97734 -3.0183,-13.249785 -3.93989,-7.844767 -11.34611,-13.370497 -20.87133,-15.571976 l -2.35461,-0.544198 -117.13992,-0.06654 c -64.42696,-0.0366 -117.13992,-0.01147 -117.13992,0.05585 0,0.107655 34.32904,50.568717 38.34865,56.369584 l 1.55052,2.237606 97.31115,-0.0671 97.31117,-0.0671 z"
     id="path7" />
  <path
     style="fill:#ff7f2a;fill-opacity:1;stroke-width:0.24165"
     d="m 205.52347,277.4083 c -19.11622,-1.06505 -35.0028,-4.02908 -53.53276,-9.98786 -7.2443,-2.32958 -12.02347,-4.00982 -29.1116,-10.23495 C 85.725618,243.65066 78.573146,241.30104 68.266172,239.2449 55.152269,236.6288 46.45584,235.92234 24.467079,235.68686 L 10.270132,235.53481 V 146.36468 57.194539 l 7.068267,0.167014 c 3.887547,0.09186 10.276174,0.26917 14.196948,0.394025 21.629171,0.688764 34.67559,-0.201321 42.787866,-2.919184 6.116559,-2.049235 12.331398,-5.179143 30.432137,-15.326188 11.26063,-6.312568 14.78983,-8.23123 21.101,-11.471641 36.16954,-18.5709126 62.35109,-22.0660864 84.37929,-11.264435 6.4483,3.161959 12.13565,7.36103 17.91966,13.230417 2.91946,2.962556 3.04458,3.138103 20.55313,28.837268 39.9279,58.606445 37.80979,55.395485 38.57568,58.479345 0.48591,1.95654 0.6005,3.31536 0.88649,10.51178 0.1347,3.38914 0.72908,18.28687 1.32089,33.10607 1.73495,43.44576 1.70943,42.5884 1.38209,46.46192 -1.11613,13.20765 -6.66394,22.41791 -15.1858,25.21099 -1.90387,0.62399 -2.47284,0.70086 -5.16042,0.69716 -3.52522,-0.005 -5.88744,-0.53587 -9.11985,-2.05007 -5.62456,-2.63481 -10.7744,-6.98084 -14.49825,-12.23529 -7.59413,-10.71552 -11.97763,-21.24803 -14.16724,-34.04052 -1.303,-7.61257 -1.47707,-10.09532 -1.47396,-21.02356 0.003,-8.86193 0.0743,-10.85417 0.56572,-15.70622 0.30957,-3.0563 0.51538,-6.12935 0.45736,-6.82899 -0.19164,-2.31101 0.0165,-2.134 -16.73919,-14.2366 -18.32651,-13.23722 -24.33353,-17.50809 -24.9939,-17.77017 -1.04488,-0.41467 -2.50656,-0.49743 -3.59745,-0.20369 -1.27757,0.34402 -2.87168,1.74128 -3.45976,3.03253 -0.57111,1.25399 -0.57119,3.33648 -1.7e-4,4.59343 0.57263,1.26048 1.03798,1.65268 7.85792,6.62265 l 5.75454,4.19357 -0.59746,0.51128 c -16.30027,13.94912 -32.27823,21.16527 -52.05353,23.50898 -4.92377,0.58356 -16.75839,0.58169 -22.06633,-0.003 -8.90942,-0.98221 -16.25851,-2.41562 -26.18001,-5.10631 -5.391317,-1.46211 -5.837314,-1.54579 -6.957831,-1.30548 -2.539089,0.54453 -4.317936,2.74143 -4.317936,5.33268 0,2.36255 1.037933,4.07154 3.04609,5.01548 2.421598,1.13829 15.104347,4.35927 21.843877,5.5476 8.81447,1.55419 14.71946,2.05989 23.92337,2.0488 8.20061,-0.01 12.11411,-0.31119 18.60706,-1.43257 18.64802,-3.22065 36.01963,-11.71375 51.31995,-25.09071 l 2.62744,-2.29715 0.63483,0.40224 c 1.26916,0.80415 13.49722,9.71118 13.74971,10.01542 0.18601,0.22412 0.14998,1.40823 -0.12708,4.1768 -0.58858,5.88147 -0.57834,24.19082 0.0165,29.59974 2.23414,20.31332 8.21232,35.42061 20.07597,50.73342 l 2.14909,2.7739 -0.45753,2.30477 c -0.6781,3.4158 -0.62064,10.06974 0.11693,13.54151 1.50188,7.06935 4.7398,13.86178 9.10876,19.10815 1.93137,2.31924 5.57013,5.80458 7.66908,7.34573 0.89056,0.6539 1.53721,1.26451 1.43698,1.35691 -0.16858,0.15543 -9.85883,0.85972 -19.87672,1.44466 -5.61992,0.32814 -30.54875,0.48344 -35.28092,0.21978 z"
     id="path8" />
  <path
     style="fill:#ff7f2a;fill-opacity:1;stroke-width:0.24165"
     d="m 299.52538,153.37601 c 0,-1.71526 -0.84957,-23.05039 -1.20958,-30.37608 -0.41473,-8.43897 -1.19877,-11.09489 -5.06488,-17.15716 -0.88998,-1.39553 -1.69905,-2.676 -1.79793,-2.8455 -0.14547,-0.24934 6.68517,-0.29534 35.78371,-0.24097 l 35.9635,0.0672 2.58763,0.5498 c 11.09812,2.35808 17.50521,7.49504 20.17289,16.17386 0.61449,1.99914 0.65273,2.40007 0.65209,6.83588 -6.4e-4,4.39264 -0.0458,4.87604 -0.66529,7.12868 -2.83266,10.29959 -10.64641,17.63977 -21.78072,20.46064 -2.42241,0.61372 -4.52902,0.65468 -38.96609,0.75763 l -25.67533,0.0768 z"
     id="path9" />
  <path
     style="fill:#ff7f2a;fill-opacity:1;stroke-width:0.24165"
     d="m 299.76703,217.62935 c 0,-0.0628 0.16624,-0.83103 0.36942,-1.70713 1.40926,-6.0766 1.53776,-11.35822 0.73956,-30.39853 -0.34412,-8.20881 -0.62568,-15.63049 -0.62568,-16.49262 v -1.56751 l 28.93761,0.008 c 29.09005,0.008 34.57604,0.12576 38.75364,0.83459 14.73175,2.4996 22.15979,11.14538 20.9923,24.43375 -0.56122,6.38775 -3.13533,11.96034 -7.54061,16.32437 -3.89927,3.86275 -8.70138,6.3698 -15.29327,7.98419 l -2.17485,0.53263 -32.07906,0.0814 c -17.64348,0.0448 -32.07906,0.0301 -32.07906,-0.0328 z"
     id="path10" />
  <path
     style="fill:#ff7f2a;fill-opacity:1;stroke-width:0.24165"
     d="m 270.26648,273.1251 c -5.13468,-5.23428 -8.29591,-9.0087 -11.09003,-13.24115 -4.23838,-6.42021 -6.34581,-12.29242 -6.68701,-18.63292 l -0.15802,-2.93646 3.23795,1.61854 c 5.10846,2.55355 8.76476,3.57591 13.68076,3.82537 9.2532,0.46955 18.00033,-3.77694 23.7743,-11.54176 l 1.27384,-1.71305 21.16021,0.0964 c 17.9876,0.0819 21.55457,0.15554 23.79054,0.4909 7.08318,1.06237 12.01873,3.21273 15.09204,6.57542 1.51228,1.65468 2.46741,3.31134 3.34171,5.79617 0.65804,1.87019 0.67994,2.0868 0.67185,6.64538 -0.008,4.42121 -0.0489,4.84647 -0.66578,6.88703 -2.09658,6.93569 -6.49576,12.09354 -13.09198,15.34974 -1.59694,0.78832 -3.84839,1.70234 -5.00323,2.03115 -4.75135,1.35283 -4.59138,1.347 -36.96193,1.347 h -29.81691 z"
     id="path11" />
  <path
     style="fill:#ff7f2a;fill-opacity:1;stroke-width:0.24165"
     d="M 261.5863,59.28641 C 250.75434,43.389376 241.85527,30.287759 241.81061,30.171706 c -0.0462,-0.120119 50.27974,-0.182441 116.83786,-0.144688 l 116.91906,0.06632 2.17485,0.512551 c 4.72126,1.112669 8.90918,2.972038 12.21534,5.42341 7.57573,5.617055 11.64546,13.673796 11.64546,23.054168 0,7.91878 -2.7683,14.666537 -8.27695,20.175204 -4.57509,4.57508 -10.62676,7.564053 -17.39623,8.592144 -1.97137,0.299395 -15.8823,0.347989 -98.47244,0.34397 l -96.17677,-0.0047 z"
     id="path12" />
</svg>
