<svg xmlns="http://www.w3.org/2000/svg" fill-rule="evenodd" clip-rule="evenodd" image-rendering="optimizeQuality" shape-rendering="geometricPrecision" text-rendering="geometricPrecision" viewBox="0 0 511.999 288.047"><path d="M0 57.141c0-5.635 4.569-10.204 10.204-10.204 3.764 0 9.708.194 15.963.397 14.801.481 31.642 1.029 42.354-1.47 7.034-1.642 17.702-7.671 30.032-14.64 37.144-20.995 87.503-49.456 129.409-15.45a110 110 0 0 1 4.533 3.86h238.468c11.237 0 21.531 4.212 29.007 11.308 7.428 7.052 12.029 16.856 12.029 28.157 0 11.302-4.598 21.107-12.028 28.16-7.476 7.094-17.767 11.307-29.008 11.307h-89.025a34 34 0 0 1 3.401 2.364c7.339 5.81 11.834 14.197 11.834 25.412 0 11.109-4.519 20.739-11.819 27.657a39.6 39.6 0 0 1-8.197 5.97c3.765 1.254 7.22 2.974 10.245 5.225 7.45 5.547 11.998 13.7 11.998 25.119 0 11.312-4.563 20.658-11.964 27.301-7.296 6.551-17.273 10.289-28.15 10.464 6.047 4.786 9.648 11.797 9.648 21.941 0 10.863-4.389 19.791-11.502 26.133-7.155 6.382-17.001 9.93-27.7 9.93h-66.803c-74.423 6.004-96.487-2.057-145.535-19.984-9.966-3.642-21.113-7.717-34.844-12.408-23.211-7.93-45.129-7.922-69.729-7.912v.04h-2.617C4.569 245.818 0 241.249 0 235.614zM281.27 88.37h189.693c16.962 0 30.84-12.308 30.84-29.27 0-16.963-13.884-29.271-30.84-29.271H241.355c1.109 1.586 2.301 3.358 3.725 5.448zm-38.247 143.764c-3.943 12.982 1.685 32.801 18.517 43.745-88.261 7.175-99.788-5.89-175.723-31.834-25.572-8.737-49.013-8.431-75.613-8.431V57.141c17.571 0 44.353 2.445 60.629-1.353 32.235-7.523 108.613-81.334 160.352-22.819l49.677 72.881c7.885 11.57 6.892 9.906 7.455 23.837l2.832 70.205c1.398 31.253-19.913 45.008-41.752 22.685-7.419-9.536-12.922-20.011-15.679-32.023-3.252-14.171-3.582-30.01-1.385-47.469a5.47 5.47 0 0 0-2.215-5.258l-20.863-15.061a6 6 0 0 0-.37-.267l-17.19-12.408a5.473 5.473 0 1 0-6.396 8.884l11.978 8.647c-11.906 10.611-25.392 18.388-41.108 22.15-17.985 4.305-39.071 3.427-64.281-4.36a5.48 5.48 0 0 0-3.22 10.474c27.183 8.396 50.183 9.282 70.032 4.53 18.462-4.42 34.056-13.662 47.658-26.239l14.748 10.646c-1.94 17.536-1.419 33.607 1.926 48.179 3.389 14.769 10.4 27.555 19.991 39.132m51.14-1.694h35.569c15.949 0 28.998 3.63 28.998 19.58s-13.056 25.859-28.998 25.859h-56.873l-.047-.047c-10.501-10.078-21.555-22.941-20.413-37.755 3.582 2.231 7.161 3.775 10.664 4.678 6.903 1.779 13.442 1.114 19.22-1.666 4.705-2.265 8.74-5.876 11.88-10.649m5.417-12.558h58.907c16.89 0 30.709-10.679 30.709-27.569s-13.83-22.859-30.709-22.859H300.02l1.291 31.999c.305 6.8-.328 12.992-1.731 18.429m-.067-62.987h57.333c16.566 0 30.123-11.985 30.123-28.553 0-16.567-13.562-23.843-30.123-23.843h-65.948c3.307 4.873 4.965 7.512 6.089 11.114 1.088 3.476 1.18 6.337 1.349 11.651l.144 4.025z"/><path d="m208.423 277.511-5.8-.347c-13.398-.802-26.314-2.89-38.905-6.291-10.225-2.762-19.047-5.73-41.805-14.067-32.837-12.029-41.493-14.932-50.505-16.94-14.085-3.136-27.058-4.252-49.478-4.256l-11.539-.002V57.272l2.719.005c1.495.003 7.612.164 13.592.358 26.253.85 38.811.149 47.346-2.647 6.573-2.153 11.966-4.904 35.42-18.067 29.27-16.427 47.137-23.456 65.366-25.714 4.087-.506 12.41-.568 15.949-.118 14.55 1.85 26.377 7.795 37.056 18.626l3.224 3.271 26.915 39.51c15.785 23.172 27.37 40.41 28.016 41.685.611 1.207 1.257 2.927 1.452 3.866.192.93.462 4.41.598 7.733 2.053 49.883 2.94 73.09 2.944 76.965.006 7.815-1.126 13.494-3.785 18.99-2.646 5.473-6.697 9.283-11.596 10.906-1.704.565-2.318.642-5.08.638-3.72-.006-5.708-.463-9.187-2.111a36.9 36.9 0 0 1-14.324-12.043c-10.287-14.562-14.806-28.59-15.8-49.06-.322-6.61-.053-15.12.686-21.69.216-1.928.405-4.483.419-5.68.044-3.689 1.613-2.298-21.096-18.692-10.904-7.872-20.205-14.47-20.67-14.665-1.883-.787-4.358-.296-5.903 1.17-2.09 1.982-2.316 5.45-.492 7.528.396.451 3.378 2.738 6.626 5.08 3.247 2.343 5.959 4.348 6.026 4.456.257.417-6.877 6.05-11.794 9.312-12.543 8.321-25.487 13.033-40.511 14.746-13.432 1.531-30.068-.094-46.07-4.5-8.154-2.246-7.81-2.175-9.181-1.89-4.097.85-5.838 5.813-3.173 9.046.94 1.14 1.558 1.434 5.396 2.568 9.89 2.92 20.266 4.963 30.796 6.066 4.7.491 19.022.413 23.44-.13 22.494-2.758 40.978-11.089 58.192-26.226l2.492-2.19 3.55 2.573c1.952 1.415 5.207 3.77 7.234 5.234 3.112 2.247 3.684 2.757 3.68 3.28-.003.34-.17 2.357-.37 4.484-.201 2.126-.43 7.129-.51 11.116-.575 28.67 5.607 49.044 20.768 68.446l2.123 2.717-.37 1.39c-.205.766-.5 2.714-.656 4.329-.454 4.698.244 10.104 1.992 15.428.996 3.033 3.793 8.51 5.729 11.216 2.667 3.73 7.192 8.226 10.543 10.477.905.608.92.637.362.757-.636.136-8.51.68-18.099 1.251-5.67.338-30.314.657-33.952.44" style="fill:#fff;stroke-width:.24165"/><path d="M206.007 277.404c-15.904-.873-29.414-2.99-43.111-6.757-9.566-2.63-17.577-5.3-34.933-11.64-41.332-15.099-47.74-17.251-57.767-19.408-13.171-2.833-23.57-3.739-45.004-3.923l-14.801-.126V57.27l2.719.005c1.495.003 7.612.164 13.592.358 18.202.59 28.426.45 36.61-.502 11.535-1.342 15.974-3.245 42.893-18.394 26.21-14.75 40.624-21.227 55.877-25.108 8.06-2.051 14.136-2.857 21.451-2.846 7.39.012 13.048.888 19.546 3.026 3.346 1.1 9.158 3.84 12.352 5.82 4.635 2.875 10.61 7.858 14.072 11.736 1.29 1.445 10.156 14.255 28.338 40.941 14.553 21.361 26.98 39.739 27.616 40.839 1.63 2.823 2.093 4.507 2.378 8.646.428 6.208 3.157 76.325 3.156 81.073-.002 6.647-.806 11.488-2.737 16.47-4.885 12.608-15.489 17.244-26.984 11.798-5.19-2.458-10.335-6.661-13.6-11.11-7.513-10.239-12.217-20.934-14.58-33.156-2.202-11.384-2.615-24.52-1.207-38.373.693-6.816.7-7.162.16-8.38-.32-.725-.988-1.518-1.95-2.32-1.461-1.215-35.664-25.975-38.303-27.727-2.478-1.646-5.201-1.429-7.204.574-1.322 1.323-1.776 2.652-1.575 4.613.244 2.382.407 2.53 11.91 10.86l2.13 1.543-.838.72c-18.007 15.484-36.895 23.023-59.56 23.776-11.71.39-25.837-1.533-39.51-5.375-6.412-1.802-6.488-1.817-7.896-1.531-3.548.719-5.406 4.518-3.847 7.867 1.061 2.28 2.259 2.814 11.864 5.287 12.498 3.219 22.199 4.633 33.469 4.88 18.681.409 34.053-2.923 49.78-10.79 8.24-4.122 17.016-10.145 23.957-16.443l1.881-1.707 7.077 5.107c3.893 2.809 7.173 5.196 7.288 5.305.12.113.015 2.382-.24 5.232-.63 7.005-.632 21.822-.006 27.733 1.5 14.162 4.32 24.492 9.503 34.813 2.923 5.82 6.656 11.7 10.777 16.974l2.123 2.716-.358 1.392c-1.91 7.42-.331 17.627 4.02 25.992 2.876 5.526 7.479 10.92 12.493 14.638 1.718 1.274 1.904 1.48 1.421 1.581-.66.14-9.177.727-18.074 1.249-7.48.438-30.587.649-36.368.331" style="fill:#fff;stroke-width:.24165"/><path d="M206.007 277.404c-9.456-.519-18.08-1.48-26.098-2.909-14.117-2.515-26.27-6.116-50.505-14.964-40.668-14.848-48.89-17.633-58.202-19.712-13.725-3.065-27.12-4.198-49.756-4.206l-11.055-.004V57.271h2.356c1.296 0 7.793.174 14.439.387 12.821.411 27.337.35 32.622-.138 14.253-1.315 18.06-2.858 46.518-18.854 13.923-7.826 22.597-12.35 30.753-16.04 14.165-6.407 26.802-10.175 38.721-11.544 3.867-.444 12.143-.38 15.829.122 14.018 1.912 25.513 7.746 36.005 18.274l3.263 3.273 18.599 27.303c33.42 49.059 35.668 52.394 36.636 54.359 1.428 2.896 1.622 4.262 2.03 14.266 3.157 77.34 3.135 76.64 2.444 81.405-2.761 19.044-15.013 27.835-29.337 21.05-5.371-2.545-10.357-6.668-13.821-11.432-10.208-14.035-15.012-28.288-16.182-48.01-.456-7.679-.251-14.414.745-24.575.283-2.885.445-5.617.36-6.074-.256-1.362-1.388-2.626-4.287-4.788-2.61-1.946-29.475-21.356-34.69-25.062-2.534-1.802-3.44-2.21-4.905-2.207-1.56.002-2.686.484-3.852 1.65-1.77 1.77-2.176 4.149-1.098 6.422.506 1.065 1.288 1.707 8.146 6.687 2.756 2.001 5.063 3.724 5.127 3.827.137.222-2.803 2.749-6.392 5.494-23.745 18.163-51.6 23.316-85.165 15.756a231 231 0 0 1-8.941-2.25c-6.088-1.685-5.737-1.62-7.101-1.327-3.516.754-5.357 4.553-3.813 7.869.827 1.776 1.851 2.441 5.418 3.518 22.323 6.742 44.27 8.445 63.113 4.899 16.515-3.109 31.8-10.286 45.793-21.503 1.86-1.491 4.114-3.384 5.008-4.207l1.625-1.495 7.256 5.25c6.312 4.568 7.255 5.332 7.25 5.876-.003.344-.166 2.365-.363 4.492-.519 5.598-.718 17.48-.381 22.715 1.066 16.562 4.027 28.323 10.194 40.476 2.969 5.852 6.494 11.333 10.893 16.938l1.63 2.077-.514 2.394c-.678 3.156-.716 8.777-.085 12.302 1.175 6.558 3.661 12.464 7.578 18 1.99 2.811 6.488 7.411 9.185 9.39 1.74 1.278 1.93 1.488 1.45 1.59-.663.14-9.201.73-18.075 1.248-7.483.437-30.602.647-36.368.33" style="fill:#fff;stroke-width:.24165"/><path d="M207.94 277.488c-12.334-.451-26.062-2.257-37.577-4.943-12.079-2.818-21.586-5.9-47.967-15.549-39.431-14.421-46.572-16.669-59.809-18.826-10.924-1.78-18.781-2.3-37.516-2.485l-14.68-.144V57.27l2.719.006c1.495.004 7.72.164 13.834.357 27.094.855 38.444.167 47.605-2.885 6.01-2.002 12.29-5.158 29.551-14.847 16.416-9.214 24.333-13.362 33.005-17.29 14.082-6.38 26.947-10.215 38.696-11.537 3.896-.438 12.162-.37 15.828.13 14.016 1.91 25.475 7.725 36.008 18.27 3.064 3.068 3.576 3.728 8.358 10.76 2.802 4.12 8.138 11.95 11.857 17.399 14.153 20.738 34.306 50.366 35.913 52.8 3.801 5.756 3.922 6.251 4.399 18.085.201 5.006.917 22.64 1.591 39.186 1.331 32.71 1.444 38.295.851 42.379-2.18 15.03-10.3 23.96-21.161 23.27-2.841-.18-5.237-.834-8.21-2.24-5.328-2.518-10.33-6.658-13.787-11.412-10.212-14.04-15.012-28.28-16.182-48.01-.452-7.623-.24-14.697.739-24.635.274-2.784.429-5.449.343-5.92-.28-1.558-1.228-2.578-5.011-5.398-8.544-6.368-35.208-25.475-36.407-26.088-2.853-1.46-6.064-.345-7.426 2.578-.738 1.586-.735 3.047.01 4.648.52 1.116.984 1.546 4.432 4.108a423 423 0 0 0 6.415 4.673c1.41.997 2.568 1.885 2.574 1.973.012.199-4.498 3.947-7.119 5.916-9.063 6.81-19.452 12.072-29.562 14.974-18.957 5.441-39.147 4.878-63.183-1.762-7.242-2.001-7.255-2.002-9.417-.851-3.703 1.972-3.725 7.523-.038 9.511 2.098 1.132 13.37 4.117 20.764 5.499 15.787 2.95 30.984 3.2 44.826.733 18.458-3.288 36.214-12.154 51.168-25.551l1.991-1.784 7.28 5.276 7.28 5.276-.167 2.055c-.092 1.13-.266 3.196-.387 4.592-.41 4.722-.547 16.103-.254 20.902 1.418 23.17 7.116 39.175 20.02 56.233l2.688 3.553-.501 2.368c-.664 3.14-.703 8.796-.084 12.275 1.157 6.502 3.696 12.531 7.576 17.987 1.973 2.776 6.465 7.37 9.18 9.39 1.73 1.287 1.925 1.503 1.45 1.604-1.196.253-17.263 1.24-25.804 1.586-5.29.214-21.644.26-26.702.075M261.53 59.144l-19.806-29.059 115.868-.06c126.22-.066 117.776-.154 122.688 1.27 2.705.784 6.454 2.553 8.963 4.231 2.512 1.68 5.93 5.149 7.696 7.811 4.873 7.346 6.033 16.623 3.153 25.202-3.31 9.864-12.387 17.268-23.521 19.19-2.693.465-4.512.473-98.99.473h-96.246zM299.545 152.18c-.083-1.496-.31-6.797-.505-11.781s-.468-11.925-.608-15.425-.411-7.269-.605-8.376c-.651-3.737-2.054-6.959-4.921-11.306l-1.718-2.604 36.066.075 36.067.076 2.939.654c6.243 1.388 10.574 3.484 14.065 6.806 2.924 2.784 4.797 6.036 5.853 10.164.734 2.87.794 8.355.124 11.478-2.756 12.865-13.401 21.694-27.392 22.717-1.694.124-15.71.229-31.148.233l-28.068.007zM299.987 216.948c1.335-6.5 1.686-11.603 1.355-19.713-.139-3.416-.412-10.288-.606-15.272-.195-4.984-.421-10.286-.504-11.78l-.15-2.72 29.324.005c29.28.004 34.168.113 38.627.868 11.137 1.887 18.116 7.356 20.317 15.923.635 2.472.857 6.843.487 9.613-1.578 11.811-9.862 20.185-22.93 23.179l-2.344.537-31.87.076-31.868.077z" style="fill:#fff;stroke-width:.24165"/><path d="M269.292 272.038c-11.274-11.547-16.768-21.784-16.768-31.242 0-1.258.049-2.287.108-2.287s1.228.59 2.598 1.31c2.799 1.474 6.335 2.767 9.383 3.432 1.567.342 3.013.443 6.156.431 3.62-.014 4.383-.09 6.422-.636 1.272-.342 3.124-.96 4.116-1.372 4.071-1.695 9.038-5.702 11.694-9.434l1.208-1.698 21.144.077c18.198.067 21.52.134 23.836.48 10.279 1.534 16.125 5.35 18.314 11.955 2.182 6.583.98 14.91-3.01 20.857-1.516 2.26-5.1 5.676-7.52 7.168-3.608 2.223-8.285 3.825-12.827 4.395-1.265.159-12.737.249-31.62.249H272.89z" style="fill:#fff;stroke-width:.24165"/></svg>