<svg xmlns="http://www.w3.org/2000/svg" fill-rule="evenodd" clip-rule="evenodd" image-rendering="optimizeQuality" shape-rendering="geometricPrecision" text-rendering="geometricPrecision" viewBox="0 0 511.999 288.047"><path d="M511.999 57.141c0-5.635-4.568-10.204-10.204-10.204-3.764 0-9.707.194-15.962.397-14.801.481-31.643 1.029-42.355-1.47-7.034-1.642-17.702-7.671-30.032-14.64-37.144-20.995-87.503-49.456-129.409-15.45a110 110 0 0 0-4.533 3.86H41.036c-11.236 0-21.531 4.212-29.007 11.308C4.601 37.994 0 47.798 0 59.099c0 11.302 4.599 21.107 12.028 28.16 7.476 7.094 17.767 11.307 29.008 11.307h89.026a34 34 0 0 0-3.402 2.364c-7.339 5.81-11.834 14.197-11.834 25.412 0 11.109 4.519 20.739 11.82 27.657a39.6 39.6 0 0 0 8.196 5.97c-3.765 1.254-7.22 2.974-10.245 5.225-7.449 5.547-11.998 13.7-11.998 25.119 0 11.312 4.563 20.658 11.964 27.301 7.296 6.551 17.273 10.289 28.15 10.464-6.047 4.786-9.647 11.797-9.647 21.941 0 10.863 4.388 19.791 11.502 26.133 7.154 6.382 17.001 9.93 27.699 9.93h66.803c74.423 6.004 96.488-2.057 145.536-19.984 9.965-3.642 21.112-7.717 34.843-12.408 23.211-7.93 45.129-7.922 69.729-7.912v.04h2.617c5.636 0 10.204-4.569 10.204-10.204zM230.729 88.37H41.036c-16.962 0-30.84-12.308-30.84-29.27 0-16.963 13.884-29.271 30.84-29.271h229.608c-1.109 1.586-2.3 3.358-3.725 5.448zm38.247 143.764c3.943 12.982-1.684 32.801-18.517 43.745 88.261 7.175 99.789-5.89 175.723-31.834 25.572-8.737 49.013-8.431 75.613-8.431V57.141c-17.571 0-44.353 2.445-60.629-1.353-32.235-7.523-108.613-81.334-160.352-22.819l-49.676 72.881c-7.886 11.57-6.893 9.906-7.456 23.837l-2.832 70.205c-1.398 31.253 19.913 45.008 41.752 22.685 7.42-9.536 12.922-20.011 15.679-32.023 3.252-14.171 3.583-30.01 1.385-47.469a5.47 5.47 0 0 1 2.215-5.258l20.864-15.061q.18-.142.369-.267l17.19-12.408a5.474 5.474 0 1 1 6.396 8.884l-11.978 8.647c11.907 10.611 25.392 18.388 41.108 22.15 17.986 4.305 39.071 3.427 64.282-4.36a5.48 5.48 0 0 1 3.219 10.474c-27.183 8.396-50.183 9.282-70.032 4.53-18.462-4.42-34.056-13.662-47.658-26.239l-14.747 10.646c1.939 17.536 1.418 33.607-1.926 48.179-3.389 14.769-10.401 27.555-19.992 39.132m-51.139-1.694h-35.57c-15.949 0-28.998 3.63-28.998 19.58s13.056 25.859 28.998 25.859h56.874l.046-.047c10.501-10.078 21.555-22.941 20.413-37.755-3.581 2.231-7.16 3.775-10.664 4.678-6.903 1.779-13.442 1.114-19.22-1.666-4.704-2.265-8.74-5.876-11.879-10.649m-5.418-12.558h-58.907c-16.89 0-30.708-10.679-30.708-27.569s13.829-22.859 30.708-22.859h58.467l-1.291 31.999c-.305 6.8.328 12.992 1.731 18.429m.067-62.987h-57.333c-16.566 0-30.123-11.985-30.123-28.553 0-16.567 13.563-23.843 30.123-23.843h65.948c-3.307 4.873-4.965 7.512-6.089 11.114-1.088 3.476-1.18 6.337-1.349 11.651l-.144 4.025z" style="fill:#000;fill-opacity:1;stroke:none"/><path fill="none" d="M35.772 87.819c-5.906-.918-12.03-3.844-16.395-7.833-4.168-3.81-7.411-9.656-8.537-15.39-.515-2.618-.57-7.912-.112-10.466 2.25-12.513 12.316-21.88 25.576-23.8 2.332-.337 14.59-.369 118.29-.31l115.686.065-19.77 28.998-19.771 28.998-96.4.038c-81.382.031-96.738-.016-98.567-.3M278.864 277.486c-7.356-.24-26.56-1.451-27.247-1.719-.336-.13.022-.504 1.72-1.793 7.766-5.895 13.383-14.44 15.722-23.918.873-3.536 1.227-6.244 1.225-9.366 0-2.263-.474-6.105-.949-7.71-.225-.762-.172-.9.797-2.054 2.733-3.254 7.18-9.744 9.626-14.045 7.087-12.466 10.841-25.812 12.055-42.861.372-5.231.159-19.577-.372-25.01-.219-2.242-.365-4.108-.325-4.147s3.322-2.418 7.294-5.285l7.222-5.213 1.84 1.642c16.704 14.899 35.857 23.867 56.574 26.49 10.395 1.315 21.837 1.112 33.831-.603 8.148-1.164 23.475-4.818 26.34-6.28 1.867-.951 2.9-2.713 2.9-4.945 0-2.904-1.87-5.082-4.742-5.522-1.04-.16-1.542-.05-7.945 1.741-7.914 2.214-16.765 3.91-24.89 4.77-5.715.606-16.968.612-21.867.012-12.172-1.489-21.56-4.294-31.538-9.425-7.198-3.7-12.942-7.63-20.586-14.078l-.607-.512 6.368-4.609c3.718-2.69 6.589-4.941 6.899-5.408 1.94-2.924.717-6.973-2.517-8.328-1-.419-3.245-.419-4.245 0-.978.41-39.119 27.923-40.343 29.101-.538.519-1.062 1.354-1.301 2.073-.373 1.121-.372 1.462.006 4.97.754 7.006.873 8.825 1.024 15.727.549 25.112-4.716 43.307-17.356 59.978-2.865 3.778-8.868 8.383-13.518 10.368-3.22 1.375-5.134 1.77-8.55 1.769-2.805-.002-3.349-.074-5.075-.673-3.594-1.246-6.467-3.354-8.808-6.462-4.33-5.745-6.537-13.54-6.537-23.083 0-3.703 2.646-71.77 3.118-80.199.266-4.752.546-6.044 1.884-8.691 1.044-2.065-2.079 2.57 29.008-43.059L281.2 32.671l2.94-2.956c5.604-5.632 11.336-9.83 17.68-12.943 19.4-9.523 41.99-7.843 72.012 5.356 7.598 3.34 18.101 8.828 34.194 17.866 15.846 8.9 21.227 11.676 27.064 13.964 9.534 3.738 21.5 4.61 50.384 3.675 5.981-.194 12.098-.355 13.593-.357l2.719-.005V235.61h-11.539c-21.912.004-34.972 1.077-48.495 3.987-9.563 2.059-17.537 4.72-53.058 17.712-16.058 5.873-22.427 8.112-28.994 10.191-19.661 6.225-34.35 8.891-54.617 9.914-4.209.213-20.537.258-26.22.072z" style="fill:#000;fill-opacity:0;stroke-width:.24165"/><path fill="none" d="M278.864 277.486c-7.356-.24-26.56-1.451-27.247-1.719-.336-.13.022-.504 1.72-1.793 7.766-5.895 13.383-14.44 15.722-23.918.873-3.536 1.227-6.244 1.225-9.366 0-2.263-.474-6.105-.949-7.71-.225-.762-.172-.9.797-2.054 2.733-3.254 7.18-9.744 9.626-14.045 7.087-12.466 10.841-25.812 12.055-42.861.372-5.231.159-19.577-.372-25.01-.219-2.242-.365-4.108-.325-4.147s3.322-2.418 7.294-5.285l7.222-5.213 1.84 1.642c16.704 14.899 35.857 23.867 56.574 26.49 10.395 1.315 21.837 1.112 33.831-.603 8.148-1.164 23.475-4.818 26.34-6.28 1.867-.951 2.9-2.713 2.9-4.945 0-2.904-1.87-5.082-4.742-5.522-1.04-.16-1.542-.05-7.945 1.741-7.914 2.214-16.765 3.91-24.89 4.77-5.715.606-16.968.612-21.867.012-12.172-1.489-21.56-4.294-31.538-9.425-7.198-3.7-12.942-7.63-20.586-14.078l-.607-.512 6.368-4.609c3.718-2.69 6.589-4.941 6.899-5.408 1.94-2.924.717-6.973-2.517-8.328-1-.419-3.245-.419-4.245 0-.978.41-39.119 27.923-40.343 29.101-.538.519-1.062 1.354-1.301 2.073-.373 1.121-.372 1.462.006 4.97.754 7.006.873 8.825 1.024 15.727.549 25.112-4.716 43.307-17.356 59.978-2.865 3.778-8.868 8.383-13.518 10.368-3.22 1.375-5.134 1.77-8.55 1.769-2.805-.002-3.349-.074-5.075-.673-3.594-1.246-6.467-3.354-8.808-6.462-4.33-5.745-6.537-13.54-6.537-23.083 0-3.703 2.646-71.77 3.118-80.199.266-4.752.546-6.044 1.884-8.691 1.044-2.065-2.079 2.57 29.008-43.059L281.2 32.671l2.94-2.956c5.604-5.632 11.336-9.83 17.68-12.943 19.4-9.523 41.99-7.843 72.012 5.356 7.598 3.34 18.101 8.828 34.194 17.866 15.846 8.9 21.227 11.676 27.064 13.964 9.534 3.738 21.5 4.61 50.384 3.675 5.981-.194 12.098-.355 13.593-.357l2.719-.005V235.61h-11.539c-21.912.004-34.972 1.077-48.495 3.987-9.563 2.059-17.537 4.72-53.058 17.712-16.058 5.873-22.427 8.112-28.994 10.191-19.661 6.225-34.35 8.891-54.617 9.914-4.209.213-20.537.258-26.22.072z" style="fill:#000;fill-opacity:0;stroke-width:.24165"/><path fill="none" d="M278.864 277.486c-7.356-.24-26.56-1.451-27.247-1.719-.336-.13.022-.504 1.72-1.793 7.766-5.895 13.383-14.44 15.722-23.918.873-3.536 1.227-6.244 1.225-9.366 0-2.263-.474-6.105-.949-7.71-.225-.762-.172-.9.797-2.054 2.733-3.254 7.18-9.744 9.626-14.045 7.087-12.466 10.841-25.812 12.055-42.861.372-5.231.159-19.577-.372-25.01-.219-2.242-.365-4.108-.325-4.147s3.322-2.418 7.294-5.285l7.222-5.213 1.84 1.642c16.704 14.899 35.857 23.867 56.574 26.49 10.395 1.315 21.837 1.112 33.831-.603 8.148-1.164 23.475-4.818 26.34-6.28 1.867-.951 2.9-2.713 2.9-4.945 0-2.904-1.87-5.082-4.742-5.522-1.04-.16-1.542-.05-7.945 1.741-7.914 2.214-16.765 3.91-24.89 4.77-5.715.606-16.968.612-21.867.012-12.172-1.489-21.56-4.294-31.538-9.425-7.198-3.7-12.942-7.63-20.586-14.078l-.607-.512 6.368-4.609c3.718-2.69 6.589-4.941 6.899-5.408 1.94-2.924.717-6.973-2.517-8.328-1-.419-3.245-.419-4.245 0-.978.41-39.119 27.923-40.343 29.101-.538.519-1.062 1.354-1.301 2.073-.373 1.121-.372 1.462.006 4.97.754 7.006.873 8.825 1.024 15.727.549 25.112-4.716 43.307-17.356 59.978-2.865 3.778-8.868 8.383-13.518 10.368-3.22 1.375-5.134 1.77-8.55 1.769-2.805-.002-3.349-.074-5.075-.673-3.594-1.246-6.467-3.354-8.808-6.462-4.33-5.745-6.537-13.54-6.537-23.083 0-3.703 2.646-71.77 3.118-80.199.266-4.752.546-6.044 1.884-8.691 1.044-2.065-2.079 2.57 29.008-43.059L281.2 32.671l2.94-2.956c5.604-5.632 11.336-9.83 17.68-12.943 19.4-9.523 41.99-7.843 72.012 5.356 7.598 3.34 18.101 8.828 34.194 17.866 15.846 8.9 21.227 11.676 27.064 13.964 9.534 3.738 21.5 4.61 50.384 3.675 5.981-.194 12.098-.355 13.593-.357l2.719-.005V235.61h-11.539c-21.912.004-34.972 1.077-48.495 3.987-9.563 2.059-17.537 4.72-53.058 17.712-16.058 5.873-22.427 8.112-28.994 10.191-19.661 6.225-34.35 8.891-54.617 9.914-4.209.213-20.537.258-26.22.072z" style="fill:#000;fill-opacity:0;stroke-width:.24165"/><path d="M278.864 277.486c-7.356-.24-26.56-1.451-27.247-1.719-.336-.13.022-.504 1.72-1.793 7.766-5.895 13.383-14.44 15.722-23.918.873-3.536 1.227-6.244 1.225-9.366 0-2.263-.474-6.105-.949-7.71-.225-.762-.172-.9.797-2.054 2.733-3.254 7.18-9.744 9.626-14.045 7.087-12.466 10.841-25.812 12.055-42.861.372-5.231.159-19.577-.372-25.01-.219-2.242-.365-4.108-.325-4.147s3.322-2.418 7.294-5.285l7.222-5.213 1.84 1.642c16.704 14.899 35.857 23.867 56.574 26.49 10.395 1.315 21.837 1.112 33.831-.603 8.148-1.164 23.475-4.818 26.34-6.28 1.867-.951 2.9-2.713 2.9-4.945 0-2.904-1.87-5.082-4.742-5.522-1.04-.16-1.542-.05-7.945 1.741-7.914 2.214-16.765 3.91-24.89 4.77-5.715.606-16.968.612-21.867.012-12.172-1.489-21.56-4.294-31.538-9.425-7.198-3.7-12.942-7.63-20.586-14.078l-.607-.512 6.368-4.609c3.718-2.69 6.589-4.941 6.899-5.408 1.94-2.924.717-6.973-2.517-8.328-1-.419-3.245-.419-4.245 0-.978.41-39.119 27.923-40.343 29.101-.538.519-1.062 1.354-1.301 2.073-.373 1.121-.372 1.462.006 4.97.754 7.006.873 8.825 1.024 15.727.549 25.112-4.716 43.307-17.356 59.978-2.865 3.778-8.868 8.383-13.518 10.368-3.22 1.375-5.134 1.77-8.55 1.769-2.805-.002-3.349-.074-5.075-.673-3.594-1.246-6.467-3.354-8.808-6.462-4.33-5.745-6.537-13.54-6.537-23.083 0-3.703 2.646-71.77 3.118-80.199.266-4.752.546-6.044 1.884-8.691 1.044-2.065-2.079 2.57 29.008-43.059L281.2 32.671l2.94-2.956c5.604-5.632 11.336-9.83 17.68-12.943 19.4-9.523 41.99-7.843 72.012 5.356 7.598 3.34 18.101 8.828 34.194 17.866 15.846 8.9 21.227 11.676 27.064 13.964 9.534 3.738 21.5 4.61 50.384 3.675 5.981-.194 12.098-.355 13.593-.357l2.719-.005V235.61h-11.539c-21.912.004-34.972 1.077-48.495 3.987-9.563 2.059-17.537 4.72-53.058 17.712-16.058 5.873-22.427 8.112-28.994 10.191-19.661 6.225-34.35 8.891-54.617 9.914-4.209.213-20.537.258-26.22.072z" style="fill:#fff;fill-opacity:1;stroke:none;stroke-width:.24165"/><path d="M278.864 277.501c-9.039-.358-26.583-1.475-27.247-1.734-.337-.13.014-.499 1.691-1.776 2.088-1.59 6.074-5.448 7.575-7.33 4.058-5.09 7.362-12.215 8.683-18.728.942-4.64.891-10.643-.123-14.487l-.333-1.26 2.056-2.578c2.72-3.412 7.11-10.032 9.24-13.935 6.796-12.459 10.223-25.02 11.402-41.803.375-5.327.166-19.336-.37-24.86-.217-2.242-.362-4.108-.322-4.147s3.321-2.417 7.292-5.283l7.219-5.211 2.568 2.25c5.517 4.834 13.161 10.336 18.758 13.5 13.448 7.605 27.435 11.778 43.618 13.014 4.697.359 15.717.156 20.54-.378a170 170 0 0 0 29.737-6.003c3.339-.989 4.034-1.326 4.999-2.425.993-1.13 1.342-2.318 1.225-4.16-.163-2.548-1.8-4.39-4.38-4.926-1.368-.283-1.017-.353-8.141 1.622-8.162 2.263-16.998 3.958-25.01 4.8-5.726.6-16.987.604-21.868.007-7.194-.88-12.65-2.04-18.357-3.906-12.02-3.928-22.717-10.135-33.776-19.598l-.6-.512 3.047-2.206 6.046-4.38c1.65-1.196 3.384-2.621 3.852-3.168 2.196-2.565 1.32-6.73-1.756-8.354-1.35-.712-3.618-.77-4.883-.126-1.616.824-39.81 28.562-40.528 29.434-1.227 1.489-1.366 2.482-.916 6.555.845 7.64.977 10.135.986 18.55.01 8.933-.171 11.896-1.113 18.245-2.138 14.413-6.437 25.185-14.807 37.093-3.52 5.01-9.497 9.93-14.808 12.19-3.335 1.418-5.212 1.81-8.651 1.809-2.806-.002-3.349-.074-5.075-.673-3.594-1.247-6.467-3.354-8.809-6.462-4.33-5.748-6.536-13.539-6.536-23.095 0-3.73 2.653-72.154 3.116-80.346.357-6.332.74-7.297 5.99-15.066 1.438-2.127 13.517-19.86 26.843-39.408l24.228-35.54 2.957-2.973c10.767-10.822 22.814-16.888 37.03-18.644 3.156-.39 11.608-.394 14.982-.006 14.41 1.653 28.934 6.46 47.39 15.684 6.91 3.453 12.067 6.23 23.656 12.74 17.778 9.985 23.009 12.67 28.877 14.815 9.374 3.429 21.24 4.224 49.417 3.31 5.981-.193 12.098-.354 13.593-.356l2.719-.005v178.338h-11.54c-22.466.004-35.866 1.152-49.718 4.264-9.158 2.057-16.504 4.543-55.822 18.887-20.728 7.563-29.415 10.38-40.356 13.093-11.003 2.728-20.394 4.214-32.985 5.22-4.49.36-26.825.653-32.502.428z" style="fill:#fff;fill-opacity:1;stroke:none;stroke-width:.24165"/><path d="M278.864 277.501c-9.102-.361-26.582-1.475-27.26-1.737-.355-.138-.132-.39 1.209-1.359 2.918-2.11 7.974-7.41 10.042-10.523 4.425-6.666 6.984-14.093 7.348-21.329.156-3.092-.153-6.804-.756-9.092l-.34-1.29 1.762-2.208c4.148-5.197 8.42-11.882 11.281-17.657 5.098-10.288 7.978-21.009 9.45-35.176.486-4.684.4-22.38-.135-27.88-.231-2.374-.382-4.356-.334-4.404s3.325-2.424 7.282-5.281l7.196-5.195 2.94 2.561c15.179 13.232 32.484 21.676 50.906 24.839 10.915 1.874 23.11 2.085 34.797.604 8.975-1.138 19.014-3.304 28.084-6.059 3.031-.92 4.552-2.522 4.73-4.983.19-2.644-.843-4.587-2.996-5.63-1.624-.786-3.044-.69-7.067.48-31.163 9.058-57.354 7.891-80.185-3.573-7.21-3.62-13.481-7.87-21.304-14.433l-.599-.503 5.611-4.079c3.086-2.243 6.043-4.447 6.571-4.9 2.324-1.988 2.688-5.197.86-7.587-1.548-2.026-4.629-2.774-6.747-1.639-1.157.62-32.303 23.034-38.134 27.442-3.728 2.82-3.834 3.145-3.147 9.65 1.055 9.99 1.259 21.819.51 29.603-.862 8.956-2.866 18.019-5.468 24.725-3.35 8.638-10.24 19.741-14.731 23.74-4.913 4.376-8.916 6.735-13.785 8.126-1.539.439-2.51.543-5.046.542-2.806-.002-3.349-.074-5.075-.673-1.063-.369-2.423-.952-3.02-1.296-7.797-4.486-12.326-14.882-12.325-28.293 0-2.086.598-18.637 1.328-36.779s1.442-35.867 1.58-39.389c.281-7.141.474-8.77 1.296-10.946.948-2.51.778-2.25 16.575-25.422l24.98-36.65c13.934-20.445 14.534-21.281 17.17-23.947C294.67 19.03 306.9 12.85 321.153 11.09c3.133-.387 11.584-.394 14.982-.013 14.443 1.622 28.78 6.388 47.77 15.88 6.967 3.483 10.902 5.607 24.363 13.154 18.486 10.364 23.801 13 30.407 15.081 7.994 2.519 21.498 3.242 46.075 2.468 6.779-.213 13.385-.388 14.68-.388h2.357v178.277l-14.802.13c-8.14.073-16.486.251-18.546.397-15.655 1.11-26.904 3.053-38.488 6.65-5.483 1.702-17.31 5.877-38.478 13.585-21.43 7.803-27.569 9.94-35.401 12.319-15.968 4.85-28.954 7.265-46.035 8.56-3.29.25-26.811.485-31.173.312" style="fill:#fff;fill-opacity:1;stroke:none;stroke-width:.24165"/><path d="M278.864 277.504c-11.242-.495-26.56-1.473-27.241-1.738-.329-.129.077-.55 1.879-1.95 2.89-2.246 6.75-6.264 8.865-9.227 3.065-4.292 6.026-10.998 7.041-15.948 1.123-5.469 1.137-10.915.039-15.163l-.332-1.285 1.793-2.294c12.275-15.702 18.278-30.754 20.567-51.561.605-5.503.599-22.398-.01-28.97-.228-2.444-.382-4.474-.344-4.512s3.31-2.413 7.27-5.279l7.2-5.21 2.948 2.527c14.16 12.141 27.994 19.457 44.512 23.538 13.307 3.289 29.211 3.802 44.826 1.448 7.266-1.095 17.26-3.364 23.763-5.394 2.479-.774 2.996-1.029 3.872-1.905 2.786-2.79 1.759-7.716-1.9-9.108-1.277-.486-3.047-.293-6.607.718-26.317 7.476-48.08 7.982-67.689 1.573-11.357-3.711-21.633-9.523-32.015-18.104-1.856-1.534-2.26-1.978-2.014-2.214.17-.163 2.81-2.109 5.866-4.325 6.251-4.532 6.74-4.944 7.405-6.238.54-1.05.645-3.251.209-4.394-1.056-2.764-4.838-4.372-7.324-3.113-1.15.583-27.11 19.198-37.07 26.583-5.208 3.861-5.195 3.824-4.342 11.69 2.302 21.24.2 40.865-5.926 55.337-3.406 8.045-9.711 17.935-13.746 21.56-3.703 3.327-7.483 5.819-10.894 7.181-3.256 1.3-4.636 1.569-8.056 1.568-2.807-.001-3.348-.073-5.075-.672-3.302-1.145-5.889-2.909-8.07-5.501-4.75-5.647-7.275-13.993-7.275-24.044 0-3.106.783-23.649 2.908-76.332.417-10.338.449-10.442 5.4-17.883 1.325-1.993 6.34-9.388 11.141-16.432 44.71-65.59 40.51-59.556 43.618-62.674 10.784-10.825 22.862-16.903 37.097-18.67 3.587-.445 11.882-.382 16.07.121 9.078 1.092 19.064 3.77 29.36 7.874 11.464 4.57 21.122 9.466 44.076 22.343 21.804 12.232 27.07 14.403 38.085 15.705 7.216.853 18.581 1.075 32.26.63 3.789-.123 10.014-.3 13.835-.394l6.948-.17v178.413l-10.573.002c-20.306.003-31.845.79-44.403 3.028-11.335 2.02-18.479 4.261-48.692 15.27-21.878 7.973-29.369 10.642-35.483 12.643-19.445 6.367-33.329 9.175-52.599 10.638-3.258.248-27.209.49-31.173.315zM35.772 87.819c-5.906-.918-12.03-3.844-16.395-7.833-4.168-3.81-7.411-9.656-8.537-15.39-.515-2.618-.57-7.912-.112-10.466 2.25-12.513 12.316-21.88 25.576-23.8 2.332-.337 14.59-.369 118.29-.31l115.686.065-19.77 28.998-19.771 28.998-96.4.038c-81.382.031-96.738-.016-98.567-.3M152.481 154.633c-11.292-.832-21.31-7.855-25.254-17.704-2.135-5.332-2.635-11.781-1.31-16.894 2.106-8.128 8.797-13.984 18.567-16.25 4.622-1.072 4.732-1.075 41.398-1.08l34.851-.003-1.565 2.411c-1.84 2.837-3.284 5.597-3.984 7.617-1.276 3.687-1.39 5.059-2.17 26.22-.271 7.376-.553 13.982-.626 14.68l-.133 1.268-28.558-.034c-15.707-.02-29.754-.123-31.216-.23zM148.736 217.464c-8.297-1.065-15.552-4.902-20.162-10.664-6.67-8.336-7.546-21.236-1.973-29.046 4.304-6.032 11.9-9.312 23.267-10.049 1.97-.127 16.71-.234 32.76-.236l29.178-.005v.766c0 .422-.28 7.517-.624 15.768-.84 20.14-.705 26.141.72 32.248l.345 1.48-30.97-.03c-17.034-.017-31.677-.121-32.541-.232" style="fill:#fff;fill-opacity:1;stroke:none;stroke-width:.24165"/><path d="M176.888 275.34c-7.231-1.116-13.825-4.615-17.917-9.506-4.034-4.822-6.148-11.895-5.433-18.18.542-4.766 1.759-7.505 4.611-10.377 2.192-2.206 4.431-3.515 7.985-4.666 5.76-1.866 9.058-2.077 32.477-2.075h19.116l1.442 1.957c3.508 4.758 8.986 8.64 14.409 10.21 3.174.919 5.692 1.207 9.136 1.045 4.95-.232 8.62-1.234 13.55-3.703 1.657-.83 3.07-1.451 3.14-1.38.249.253.005 4.824-.361 6.788-1.09 5.848-4.602 12.78-9.765 19.274-2.145 2.698-7.978 9.037-9.349 10.16l-1.018.835-29.924-.023c-24.247-.02-30.337-.087-32.1-.36z" style="fill:#fff;fill-opacity:1;stroke:none;stroke-width:.24165"/><path d="M278.743 277.49c-9.082-.355-26.454-1.456-27.129-1.72-.343-.135-.083-.427 1.33-1.49 2.455-1.85 7.533-7.016 9.157-9.317 3.752-5.316 6.265-11.12 7.504-17.33.732-3.671.74-10.069.016-13.353l-.48-2.175.899-1.087c2.457-2.976 6.486-8.796 8.868-12.808 7.714-12.995 11.784-27.173 12.905-44.947.346-5.478.142-17.932-.392-24.034-.208-2.371-.29-4.39-.184-4.484.106-.096 3.383-2.477 7.282-5.291l7.09-5.118 2.455 2.143c29.74 25.944 64.423 32.935 107.574 21.682 8.619-2.247 9.863-2.823 10.898-5.047.806-1.73.775-3.347-.094-5.011-1.55-2.966-3.797-3.495-8.782-2.065-8.74 2.506-16.923 4.24-24.616 5.217-11.228 1.425-22.413 1.215-32.381-.61-15.656-2.864-30.2-9.939-43.752-21.282-1.837-1.537-1.914-1.642-1.505-2.023.237-.22 2.81-2.118 5.716-4.216 6.287-4.538 6.861-5.024 7.434-6.284.51-1.124.592-3.4.157-4.4-.894-2.056-2.95-3.456-5.078-3.456-2.043 0-.906-.734-18.672 12.055-21.601 15.548-24.042 17.382-24.677 18.544-.802 1.466-.837 2.202-.337 7.038 2.353 22.795.403 41.609-5.844 56.365-2.686 6.344-6.935 13.528-11.176 18.896-1.403 1.776-4.99 4.913-7.705 6.739-12.434 8.361-24.273 5.64-30.495-7.007-2.498-5.08-3.74-11.248-3.74-18.58 0-3.086 1.09-31.666 2.911-76.41.263-6.457.477-8.456 1.107-10.34.775-2.32 1.28-3.095 17.812-27.357l24.036-35.28c7.107-10.434 13.365-19.568 13.908-20.3 1.276-1.72 5.6-5.993 8.573-8.476 8.857-7.392 19.683-12.185 30.74-13.608 13.616-1.753 28.622.75 46.266 7.715 11.39 4.496 20.47 9.106 45.672 23.185 14.158 7.91 21.341 11.413 26.702 13.02 8.182 2.456 21.479 3.262 42.41 2.573 3.721-.122 9.892-.299 13.713-.392l6.948-.169v178.414l-10.09.003c-21.873.007-34.27.926-47.544 3.528-10.323 2.023-16.12 3.912-51.955 16.935-11.164 4.057-22.854 8.24-25.977 9.295-23.038 7.785-39.296 10.993-61.017 12.04-4.496.217-21.614.268-26.46.08" style="fill:#fff;fill-opacity:1;stroke:none;stroke-width:.24165"/><path d="M176.888 275.34c-7.231-1.116-13.825-4.615-17.917-9.506-4.034-4.822-6.148-11.895-5.433-18.18.542-4.766 1.759-7.505 4.611-10.377 2.192-2.206 4.431-3.515 7.985-4.666 5.76-1.866 9.056-2.077 32.497-2.077h19.136l.947 1.39c1.339 1.966 5.22 5.77 7.29 7.144 2.485 1.65 5.94 3.227 8.692 3.967 2.123.57 2.792.636 6.592.64 5.928.004 9.4-.837 14.976-3.63 2.174-1.089 3.069-1.43 3.21-1.221.254.374.006 4.098-.436 6.572-1.036 5.792-4.684 13.028-9.746 19.332-2.324 2.893-7.764 8.815-9.21 10.026l-1.157.969-29.931-.024c-24.253-.019-30.344-.087-32.106-.359M148.736 217.464c-10.639-1.366-19.303-7.207-23.305-15.712-2.448-5.202-3.143-11.803-1.824-17.327 1.889-7.907 7.93-13.242 17.605-15.545 5.325-1.268 4.852-1.251 38.878-1.351l31.716-.093v.835c0 .46-.281 7.561-.626 15.782-.852 20.358-.7 26.278.843 32.768l.216.906-30.966-.03c-17.032-.018-31.673-.122-32.537-.233M152.481 154.633c-9.685-.714-18.72-6.108-23.395-13.967-2.956-4.97-4.33-11.029-3.79-16.707.407-4.263 1.346-7.03 3.47-10.223 3.977-5.976 11.01-9.642 20.695-10.786 1.624-.192 12.38-.25 36.781-.2l34.487.072-1.586 2.417c-1.776 2.705-3.307 5.62-3.999 7.612-1.235 3.555-1.358 5.064-2.13 26.219-.277 7.575-.56 14.236-.628 14.8l-.126 1.028-28.56-.035c-15.708-.019-29.757-.122-31.219-.23M35.772 87.819c-9.579-1.49-18.012-7.369-22.16-15.45-2.355-4.59-3.195-8.08-3.195-13.286 0-7.937 2.7-14.552 8.19-20.062 4.705-4.722 10.734-7.682 17.697-8.69 2.332-.338 14.591-.37 118.292-.311l115.691.065-19.77 28.998-19.769 28.998-96.404.038c-81.386.031-96.743-.016-98.572-.3" style="fill:#fff;fill-opacity:1;stroke:none;stroke-width:.24165"/><path d="M275.964 277.41c-10.691-.531-24.042-1.441-24.467-1.667-.199-.106.133-.492.96-1.118 3.95-2.991 8.03-7.25 10.508-10.966 6.018-9.027 8.507-20.071 6.622-29.382l-.439-2.165 2.15-2.75c4.405-5.635 9.302-13.577 11.838-19.197 3.638-8.064 5.708-14.952 7.204-23.966 1.353-8.154 1.547-10.9 1.54-21.756-.006-8.728-.143-12.172-.72-18.124l-.142-1.45 7.287-5.26 7.287-5.261 2.706 2.33c20.247 17.44 41.685 25.92 67.226 26.594 13.358.352 27.465-1.58 42.892-5.875 5.481-1.526 6.825-2.182 7.855-3.836.63-1.011.725-1.393.725-2.893 0-1.503-.096-1.884-.733-2.918-.952-1.543-2.617-2.505-4.352-2.513-.736-.003-3.128.513-6.041 1.304-15.667 4.254-28.272 6.001-40.504 5.615-21.965-.694-40.287-7.766-57.909-22.35-2.362-1.956-2.465-2.08-2.054-2.463.239-.222 2.663-2.014 5.388-3.982 6.316-4.563 7.104-5.226 7.714-6.486 1.159-2.393.328-5.468-1.87-6.924-2.152-1.426-4.096-1.316-6.64.376-2.705 1.798-30.367 21.724-35.814 25.798-2.427 1.815-3.683 2.99-4.152 3.885-.512.975-.48 2.564.177 9.088.753 7.466.833 22 .155 28.032-1.686 14.985-5.017 25.361-11.697 36.428-4.014 6.65-7.299 10.524-11.779 13.886-12.946 9.716-25.611 7.42-32.16-5.83-3.258-6.591-4.111-13.3-3.52-27.695.152-3.718.875-21.767 1.607-40.109.731-18.34 1.439-34.031 1.572-34.868.508-3.186 1.126-4.442 5.138-10.441 2.76-4.125 24.79-36.482 41.944-61.602 9.318-13.647 9.943-14.499 12.589-17.16 15.346-15.439 34.078-21.5 56.068-18.146 13.063 1.993 26.433 6.667 43.497 15.206 7.15 3.578 11.55 5.953 25.494 13.76 11.398 6.383 21.903 11.795 25.806 13.293 5.045 1.937 10.326 3.015 17.932 3.659 5.178.438 17.563.564 26.824.273 4.784-.15 11.717-.345 15.405-.432l6.706-.159V235.61l-9.848.004c-25.966.01-40.847 1.453-56.002 5.429-7.214 1.893-16.794 5.206-48.934 16.926-26.316 9.595-37.761 13.134-51.144 15.812-7.983 1.598-14.786 2.52-24.251 3.288-5.498.446-29.011.672-35.644.342z" style="fill:#fff;fill-opacity:1;stroke:none;stroke-width:.24165"/><path d="M278.26 277.505c-12.447-.59-26.279-1.5-26.765-1.762-.198-.105.312-.627 1.445-1.481 2.368-1.783 6.742-6.186 8.591-8.648 6.18-8.227 9.37-18.562 8.539-27.664-.148-1.62-.422-3.59-.61-4.379l-.34-1.434 1.61-2.051c7.728-9.848 13.406-20.44 16.675-31.108 1.85-6.04 3.309-13.789 4.18-22.21.574-5.567.333-22.848-.427-30.45l-.145-1.45 7.286-5.262 7.287-5.263 2.83 2.417c9.167 7.828 17.61 13.309 27.13 17.61 20.601 9.31 43.428 11.333 69.701 6.179 7.615-1.494 17.455-4.176 19.309-5.262 1.649-.967 2.44-2.464 2.44-4.618 0-2.164-.79-3.651-2.458-4.628-1.655-.97-3.038-.992-6.362-.1-11.006 2.952-17.9 4.41-25.132 5.315-30.095 3.765-54.785-3.54-77.32-22.88l-.84-.72 2.141-1.542c7.06-5.089 10.754-7.979 11.274-8.82.75-1.213.911-3.357.362-4.795-.522-1.368-2.202-2.918-3.557-3.283-1.926-.519-3.145-.214-5.471 1.365-5.914 4.015-36.412 26.16-38.06 27.636-.664.594-1.355 1.434-1.535 1.865-.422 1.01-.415 3.299.023 7.48.918 8.752 1.088 21.795.375 28.843-.99 9.798-3.108 18.88-6.066 26.013-3.366 8.119-9.646 18.104-13.81 21.96-9.68 8.964-19.883 11.388-27.866 6.621-1.79-1.069-4.578-3.79-5.902-5.76-2.412-3.589-4.151-8.069-5.094-13.116-.982-5.26-.933-8.519.743-49.492.128-3.124.56-13.944.963-24.045.516-12.996.84-18.93 1.107-20.298.501-2.57 1.492-4.55 4.595-9.183 2.246-3.354 21.781-32.082 28.674-42.168 1.317-1.927 4.248-6.222 6.512-9.545 17.623-25.855 16.757-24.647 20.02-27.91 21.596-21.606 49.186-24.483 85.854-8.952 9.845 4.17 17.472 8.072 37.015 18.94 19.144 10.645 25.88 13.982 31.807 15.756 7.676 2.298 19.559 3.074 39.198 2.562 6.401-.167 14.33-.368 17.62-.448l5.98-.143v178.339l-14.196.15c-20.547.218-29.106.855-41.383 3.083-11.258 2.043-17.678 4.106-54.855 17.63-31.078 11.306-41.355 14.528-55.465 17.392-7.463 1.515-16.127 2.664-25.608 3.394-3.235.25-28.24.5-32.019.32" style="fill:#fff;fill-opacity:1;stroke:none;stroke-width:.24165"/><path d="M277.777 277.504c-11.767-.57-25.82-1.513-26.288-1.764-.206-.11.368-.694 1.691-1.719 9.67-7.495 15.798-18.539 16.883-30.428.288-3.164.045-7.131-.609-9.937l-.336-1.442 3.06-4.082c12.79-17.058 18.687-34.105 19.627-56.745.25-6.004-.015-18.465-.495-23.255-.126-1.263-.232-2.523-.236-2.8-.005-.387 1.69-1.732 7.247-5.754l7.254-5.249.798.679c4.357 3.704 7.247 6.05 9.576 7.774 27.517 20.37 59.457 25.485 98.2 15.73 5.852-1.474 9.592-2.667 10.667-3.403 3.356-2.3 2.804-7.705-.962-9.425-1.356-.62-2.56-.561-5.714.278-7.347 1.955-11.477 2.954-15.386 3.724-29.891 5.887-54.693 1.535-76.887-13.491-4.258-2.883-10.968-8.26-10.75-8.613.064-.103 2.611-2.005 5.662-4.227s6.015-4.49 6.59-5.04c2.323-2.226 2.184-5.823-.307-7.956-1.634-1.398-3.453-1.725-5.357-.963-1.09.436-10.197 6.886-28.1 19.902-11.779 8.563-13.067 9.587-13.566 10.78-.423 1.015-.417 3.298.022 7.484.919 8.753 1.094 22.319.375 28.963-1.876 17.346-6.237 29.524-15.085 42.126-2.427 3.456-4.196 5.377-7.11 7.722-4.105 3.3-8.044 5.429-12 6.481-2.59.69-7.416.634-9.665-.11-6.476-2.142-11.123-7.514-13.725-15.863-1.82-5.84-2.152-10.752-1.62-23.956.133-3.305.569-14.273.968-24.374 1.568-39.677 1.942-48.151 2.201-49.78.338-2.126 1.102-4.034 2.555-6.38.625-1.01 4.832-7.273 9.348-13.919 8.556-12.59 39.259-57.633 42.89-62.923 4.563-6.646 13.003-13.816 21.381-18.164 21.442-11.13 46.789-8.482 81.233 8.485 7.572 3.73 11.742 5.967 27.428 14.72 15.747 8.788 22.338 12.097 27.908 14.014 8.202 2.823 19.556 3.709 40.72 3.178 6.446-.162 14.466-.36 17.822-.44l6.102-.146v178.336l-13.835.155c-20.725.233-29.772.898-41.43 3.045-12.029 2.216-16.87 3.766-54.807 17.547-20.517 7.453-32.722 11.622-40.247 13.748-13.8 3.899-25.07 5.86-41.19 7.166-3.02.245-28.773.491-32.501.31" style="fill:#fff;fill-opacity:1;stroke:none;stroke-width:.24165"/></svg>