<?xml version="1.0" encoding="UTF-8" standalone="no"?>
<!-- Uploaded to: SVG Repo, www.svgrepo.com, Generator: SVG Repo Mixer Tools -->

<svg
   width="800px"
   height="800px"
   viewBox="0 0 512 512"
   version="1.1"
   id="svg5"
   sodipodi:docname="hand-left.svg"
   inkscape:version="1.4 (e7c3feb100, 2024-10-09)"
   xmlns:inkscape="http://www.inkscape.org/namespaces/inkscape"
   xmlns:sodipodi="http://sodipodi.sourceforge.net/DTD/sodipodi-0.dtd"
   xmlns="http://www.w3.org/2000/svg"
   xmlns:svg="http://www.w3.org/2000/svg">
  <defs
     id="defs5" />
  <sodipodi:namedview
     id="namedview5"
     pagecolor="#ffffff"
     bordercolor="#000000"
     borderopacity="0.25"
     inkscape:showpageshadow="2"
     inkscape:pageopacity="0.0"
     inkscape:pagecheckerboard="0"
     inkscape:deskcolor="#d1d1d1"
     inkscape:zoom="1.49"
     inkscape:cx="399.66443"
     inkscape:cy="400"
     inkscape:window-width="2560"
     inkscape:window-height="1403"
     inkscape:window-x="0"
     inkscape:window-y="0"
     inkscape:window-maximized="1"
     inkscape:current-layer="svg5" />
  <title
     id="title1">ionicons-v5-i</title>
  <path
     d="M80,320V144a32,32,0,0,1,32-32h0a32,32,0,0,1,32,32V256"
     style="fill:none;stroke:#000000;stroke-linecap:round;stroke-linejoin:round;stroke-width:32px"
     id="path1" />
  <path
     d="M144,256V80a32,32,0,0,1,32-32h0a32,32,0,0,1,32,32V240"
     style="fill:none;stroke:#000000;stroke-linecap:round;stroke-linejoin:round;stroke-width:32px"
     id="path2" />
  <path
     d="M272,241V96a32,32,0,0,1,32-32h0a32,32,0,0,1,32,32V320"
     style="fill:none;stroke:#000000;stroke-linecap:round;stroke-linejoin:round;stroke-width:32px"
     id="path3" />
  <path
     d="M208,240V48a32,32,0,0,1,32-32h0a32,32,0,0,1,32,32V240"
     style="fill:none;stroke:#000000;stroke-linecap:round;stroke-linejoin:round;stroke-width:32px"
     id="path4" />
  <path
     d="M80,320c0,117.4,64,176,152,176s123.71-39.6,144-88l52.71-144c6.66-18.05,3.64-34.79-11.87-43.6h0c-15.52-8.82-35.91-4.28-44.31,11.68L336,320"
     style="fill:none;stroke:#000000;stroke-linecap:round;stroke-linejoin:round;stroke-width:32px"
     id="path5" />
  <path
     style="fill:#ffffff;stroke-width:0.671141"
     d="m 341.94631,748.93946 c -100.5927,-8.2906 -166.0209,-71.07031 -185.56191,-178.05043 -1.8529,-10.14399 -3.8914,-25.96898 -5.11151,-39.68098 -1.05642,-11.87241 -1.67747,-300.99163 -0.66275,-308.5316 0.84102,-6.24921 3.06861,-10.95428 7.09032,-14.97599 9.76658,-9.76658 25.54817,-9.59337 34.87973,0.38283 1.7332,1.85293 3.96069,5.0959 4.94997,7.2066 l 1.7987,3.83763 0.33557,93.63873 0.33557,93.63873 2.19739,4.46308 c 2.74781,5.58101 8.04118,10.59291 13.40888,12.69583 2.9334,1.14923 5.25674,1.51483 9.70386,1.52698 5.50168,0.015 6.15406,-0.1408 11.04472,-2.63813 6.06581,-3.09739 10.00097,-7.39402 12.23112,-13.35465 L 250,405.31877 250.0133,265.91442 c 0.008,-87.52831 0.25831,-141.0989 0.67173,-143.95804 1.9958,-13.80265 14.17802,-23.084557 27.8608,-21.22776 7.95991,1.08018 15.30704,6.71554 18.98433,14.56127 l 1.7987,3.83763 0.33557,131.20805 0.33557,131.20805 1.78551,3.80883 c 2.38607,5.08993 6.37107,9.27244 11.46812,12.03652 4.04639,2.19431 4.45932,2.27546 11.57858,2.27546 6.73853,0 7.71858,-0.16501 11.23452,-1.89153 4.90767,-2.40994 9.29623,-6.7985 11.70617,-11.70617 l 1.89153,-3.85196 L 350,226.1745 350.33557,70.134228 351.89302,66.27741 c 2.14079,-5.301399 7.22164,-10.690852 12.55303,-13.315483 12.89096,-6.346205 28.20001,-0.155767 33.73548,13.641439 1.06748,2.660695 1.17068,13.767265 1.4829,159.585424 L 400,382.9145 l 2.19739,4.46335 c 4.45913,9.05742 12.52554,14.13287 22.63482,14.24203 11.1641,0.12054 19.94668,-5.83635 23.8037,-16.14518 1.35171,-3.61277 1.36421,-4.69172 1.37759,-118.88914 0.008,-66.59437 0.27435,-117.04771 0.63145,-119.51777 1.21354,-8.39421 6.49377,-15.67066 14.07249,-19.39264 3.27755,-1.60963 4.52571,-1.83622 10.11477,-1.83622 5.50154,0 6.89814,0.24484 10.18467,1.78551 5.3325,2.49977 9.54493,6.62384 12.13082,11.87635 l 2.18116,4.43041 0.33557,181.23659 0.33557,181.23658 2.19739,4.46338 c 4.55435,9.25087 12.5705,14.19393 23.06616,14.22346 5.36175,0.0151 6.18387,-0.17317 10.86979,-2.48908 5.22715,-2.58339 8.84483,-5.99512 11.15676,-10.52159 0.65987,-1.29195 13.80287,-32.70135 29.20667,-69.79866 15.4038,-37.09732 28.41802,-68.24562 28.92049,-69.21846 1.47016,-2.8464 6.84334,-7.13698 10.78436,-8.61151 5.30527,-1.98496 13.37778,-1.86448 18.58699,0.27739 7.53218,3.09701 11.84892,7.27934 13.89118,13.45862 1.32149,3.99844 1.02451,12.68668 -0.64119,18.75818 -0.78702,2.86872 -16.70043,46.93579 -35.36312,97.92683 -18.6627,50.99102 -37.40294,102.22439 -41.64497,113.8519 -11.4559,31.4009 -21.72717,51.65296 -35.50021,69.99646 -30.89377,41.14557 -74.08099,62.8579 -137.87929,69.31871 -12.03843,1.21913 -45.30829,1.75638 -55.7047,0.89946 z"
     id="path6"
     transform="scale(0.64)" />
</svg>
