<?xml version="1.0" encoding="UTF-8" standalone="no"?>
<!-- Uploaded to: SVG Repo, www.svgrepo.com, Generator: SVG Repo Mixer Tools -->

<svg
   width="800px"
   height="800px"
   viewBox="0 0 512 512"
   version="1.1"
   id="svg5"
   sodipodi:docname="hand-right.svg"
   inkscape:version="1.4 (e7c3feb100, 2024-10-09)"
   xmlns:inkscape="http://www.inkscape.org/namespaces/inkscape"
   xmlns:sodipodi="http://sodipodi.sourceforge.net/DTD/sodipodi-0.dtd"
   xmlns="http://www.w3.org/2000/svg"
   xmlns:svg="http://www.w3.org/2000/svg">
  <defs
     id="defs5" />
  <sodipodi:namedview
     id="namedview5"
     pagecolor="#ff8c00"
     bordercolor="#000000"
     borderopacity="0.25"
     inkscape:showpageshadow="2"
     inkscape:pageopacity="0.0"
     inkscape:pagecheckerboard="0"
     inkscape:deskcolor="#d1d1d1"
     inkscape:zoom="1.49"
     inkscape:cx="399.66443"
     inkscape:cy="400"
     inkscape:window-width="2560"
     inkscape:window-height="1403"
     inkscape:window-x="0"
     inkscape:window-y="0"
     inkscape:window-maximized="1"
     inkscape:current-layer="svg5" />
  <title
     id="title1">ionicons-v5-i</title>
  <path
     d="M432,320V144a32,32,0,0,0-32-32h0a32,32,0,0,0-32,32V256"
     style="fill:none;stroke:#000000;stroke-linecap:round;stroke-linejoin:round;stroke-width:32px"
     id="path1" />
  <path
     d="M368,256V80a32,32,0,0,0-32-32h0a32,32,0,0,0-32,32V240"
     style="fill:none;stroke:#000000;stroke-linecap:round;stroke-linejoin:round;stroke-width:32px"
     id="path2" />
  <path
     d="M240,241V96a32,32,0,0,0-32-32h0a32,32,0,0,0-32,32V320"
     style="fill:none;stroke:#000000;stroke-linecap:round;stroke-linejoin:round;stroke-width:32px"
     id="path3" />
  <path
     d="M304,240V48a32,32,0,0,0-32-32h0a32,32,0,0,0-32,32V240"
     style="fill:none;stroke:#000000;stroke-linecap:round;stroke-linejoin:round;stroke-width:32px"
     id="path4" />
  <path
     d="M432,320c0,117.4-64,176-152,176s-123.71-39.6-144-88L83.33,264c-6.66-18.05-3.64-34.79,11.87-43.6h0c15.52-8.82,35.91-4.28,44.31,11.68L176,320"
     style="fill:none;stroke:#000000;stroke-linecap:round;stroke-linejoin:round;stroke-width:32px"
     id="path5" />
  <path
     style="fill:#ff8c00;stroke-width:0.671141"
     d="M 418.79195,749.26966 C 402.67999,748.08745 395.39042,747.38255 387.6946,746.26275 324.8704,737.12121 282.00368,710.24407 253.17733,661.92136 241.11326,641.69788 239.81036,638.42433 194.67171,514.92405 171.5659,451.70611 152.1852,397.94772 151.60348,395.46097 c -0.70912,-3.03135 -0.97361,-6.62253 -0.80257,-10.89721 0.21999,-5.4982 0.52415,-6.86765 2.20962,-9.94869 3.77561,-6.90181 11.215,-10.97332 20.81497,-11.39182 4.9665,-0.21651 6.71401,-0.009 9.83027,1.165 4.24382,1.59935 9.45575,5.82801 11.09845,9.00464 0.59678,1.15404 13.70903,32.51445 29.13834,69.68979 15.4293,37.17535 28.49579,68.43648 29.03663,69.46919 2.15482,4.11447 5.91121,7.56615 10.93747,10.05026 4.68592,2.31591 5.50804,2.50417 10.86979,2.48908 10.49566,-0.0295 18.51181,-4.97259 23.06616,-14.22346 L 300,506.40437 l 0.33557,-181.23658 0.33557,-181.23659 2.18116,-4.43041 c 2.58589,-5.25251 6.79832,-9.37658 12.13082,-11.87635 3.28653,-1.54067 4.68313,-1.78551 10.18467,-1.78551 5.62376,0 6.82701,0.22155 10.20072,1.87828 7.49081,3.67849 12.77844,10.994 13.98654,19.35058 0.35662,2.46676 0.63041,53.09372 0.64739,119.71073 l 0.0294,115.43625 1.56748,3.81101 c 4.14643,10.08128 12.65642,15.71192 23.56845,15.5941 10.10928,-0.10916 18.17569,-5.18461 22.63482,-14.24203 L 400,382.9145 400.33557,226.18879 c 0.31222,-145.818159 0.41542,-156.924729 1.4829,-159.585424 5.53547,-13.797206 20.84452,-19.987644 33.73548,-13.641439 5.33139,2.624631 10.41224,8.014084 12.55303,13.315483 l 1.55745,3.856818 L 450,226.1745 l 0.33557,156.04027 1.89153,3.85196 c 2.40994,4.90767 6.7985,9.29623 11.70617,11.70617 3.51594,1.72652 4.49599,1.89153 11.23452,1.89153 7.11926,0 7.53219,-0.0811 11.57858,-2.27546 5.09705,-2.76408 9.08205,-6.94659 11.46812,-12.03652 L 500,381.54362 l 0.33557,-131.20805 0.33557,-131.20805 1.7987,-3.83763 c 10.73525,-22.904324 43.27315,-18.026023 46.89729,7.03116 0.34467,2.38302 0.6117,64.29003 0.61937,143.59337 L 550,405.31877 l 1.41403,3.77932 c 2.23015,5.96063 6.16531,10.25726 12.23112,13.35465 4.89066,2.49733 5.54304,2.65315 11.04472,2.63813 4.44712,-0.0122 6.77046,-0.37775 9.70386,-1.52698 5.36769,-2.10292 10.66107,-7.11482 13.40888,-12.69583 L 600,406.40498 l 0.33557,-93.63873 0.33557,-93.63873 1.7987,-3.83763 c 7.52113,-16.04679 27.60256,-19.81657 39.92433,-7.4948 3.76618,3.76618 6.18435,8.96039 7.03743,15.11639 0.42185,3.04409 0.55629,57.78062 0.37372,152.16304 -0.30309,156.69033 -0.24339,153.65094 -3.51114,178.74647 -9.69552,74.45916 -40.48737,130.15647 -90.27561,163.29349 -8.65194,5.75841 -27.15549,15.12143 -37.11041,18.77841 -15.13584,5.56013 -34.17815,10.04073 -51.4585,12.10798 -8.54688,1.02242 -40.61792,1.85873 -48.65771,1.26879 z"
     id="path6"
     transform="scale(0.64)" />
  <path
     style="fill:#ff8c00;stroke-width:0.671141"
     d="m 418.79195,749.26966 c -29.69308,-2.17879 -43.55605,-4.2763 -62.41611,-9.44382 -31.25863,-8.56463 -57.64042,-23.68111 -77.86142,-44.61379 -13.92165,-14.41161 -23.79147,-28.7041 -34.23417,-49.57447 -6.74455,-13.4794 -6.03435,-11.65448 -29.61235,-76.09059 -53.71566,-146.79906 -62.08757,-169.91061 -63.07098,-174.11428 -0.70246,-3.00273 -0.9665,-6.60801 -0.79601,-10.86895 0.21999,-5.4982 0.52415,-6.86765 2.20962,-9.94869 3.77561,-6.90181 11.215,-10.97332 20.81497,-11.39182 4.9665,-0.21651 6.71401,-0.009 9.83027,1.165 4.4238,1.66719 9.50172,5.88476 11.25875,9.35121 0.67884,1.33926 13.38612,31.73034 28.23841,67.53571 14.85228,35.80537 27.84679,66.96814 28.87668,69.2506 2.4245,5.37324 6.91782,9.82586 12.60079,12.48666 3.97274,1.86006 5.1623,2.10076 10.20181,2.06423 10.46707,-0.0759 18.44076,-5.0082 22.9704,-14.20892 l 2.19739,-4.4634 0.33557,-181.23655 0.33557,-181.23656 2.18116,-4.43043 c 2.58589,-5.25252 6.79831,-9.37658 12.13082,-11.87636 3.28653,-1.54067 4.68313,-1.78551 10.18467,-1.78551 5.62376,0 6.82701,0.22155 10.20072,1.87828 7.49081,3.67849 12.77844,10.994 13.98654,19.35058 0.3571,2.47006 0.62365,52.9234 0.63145,119.51777 L 350,381.82884 l 1.41403,3.77932 c 2.23015,5.96063 6.16531,10.25726 12.23112,13.35465 4.89066,2.49732 5.54304,2.65315 11.04472,2.63812 4.44712,-0.0121 6.77046,-0.37774 9.70386,-1.52697 5.36793,-2.10302 10.6611,-7.11483 13.40888,-12.69609 L 400,382.91453 l 0.33557,-157.06129 0.33557,-157.061294 1.96683,-4.01221 c 2.5142,-5.128827 7.04776,-9.652076 12.14177,-12.114158 3.49181,-1.687698 4.79718,-1.9428 10.06432,-1.966828 5.50977,-0.02513 6.4523,0.169301 10.51791,2.169782 5.53123,2.721631 10.57008,8.022945 12.74501,13.408878 l 1.55745,3.856818 L 450,226.1745 l 0.33557,156.04027 1.84886,3.76475 c 2.20769,4.49543 7.96195,10.15696 12.41238,12.21235 2.6708,1.2335 4.38693,1.47256 10.57098,1.47256 7.13465,0 7.525,-0.0772 11.62478,-2.30009 4.96811,-2.69365 9.00069,-6.96396 11.45416,-12.12944 L 500,381.54362 l 0.33557,-131.20805 0.33557,-131.20805 1.7987,-3.83763 c 7.09225,-15.13177 25.12145,-19.47334 38.18628,-9.19555 3.00601,2.36476 5.61987,6.10195 7.5302,10.76636 l 1.47811,3.6091 0.33557,143.28859 0.33557,143.28859 1.79207,3.82315 c 2.38716,5.09271 6.98532,9.55926 12.49537,12.13772 3.9428,1.84506 5.18557,2.09894 10.20182,2.08402 10.40169,-0.0309 18.43972,-5.00666 22.97778,-14.22381 L 600,406.40498 l 0.33557,-93.63873 0.33557,-93.63873 1.7987,-3.83763 c 7.52113,-16.04679 27.60256,-19.81657 39.92433,-7.4948 3.76618,3.76618 6.18435,8.96039 7.03743,15.11639 0.97568,7.04055 0.31349,296.85872 -0.70439,308.29657 -4.21947,47.41359 -13.11579,81.84093 -29.4543,113.98351 -15.20998,29.92244 -36.47075,54.09686 -63.25434,71.92292 -8.65194,5.75841 -27.15549,15.12143 -37.11041,18.77841 -15.13584,5.56013 -34.17815,10.04073 -51.4585,12.10798 -8.54688,1.02242 -40.61792,1.85873 -48.65771,1.26879 z"
     id="path7"
     transform="scale(0.64)" />
</svg>
