<?xml version="1.0" encoding="UTF-8" standalone="no"?>
<!-- Uploaded to: SVG Repo, www.svgrepo.com, Generator: SVG Repo Mixer Tools -->

<svg
   width="800px"
   height="800px"
   viewBox="0 0 512 512"
   version="1.1"
   id="svg5"
   sodipodi:docname="stop-orange-left-hand.svg"
   inkscape:version="1.4 (e7c3feb100, 2024-10-09)"
   xmlns:inkscape="http://www.inkscape.org/namespaces/inkscape"
   xmlns:sodipodi="http://sodipodi.sourceforge.net/DTD/sodipodi-0.dtd"
   xmlns="http://www.w3.org/2000/svg"
   xmlns:svg="http://www.w3.org/2000/svg">
  <defs
     id="defs5" />
  <sodipodi:namedview
     id="namedview5"
     pagecolor="#ffffff"
     bordercolor="#000000"
     borderopacity="0.25"
     inkscape:showpageshadow="2"
     inkscape:pageopacity="0.0"
     inkscape:pagecheckerboard="0"
     inkscape:deskcolor="#d1d1d1"
     inkscape:zoom="1.49"
     inkscape:cx="400.33557"
     inkscape:cy="400"
     inkscape:window-width="2560"
     inkscape:window-height="1403"
     inkscape:window-x="0"
     inkscape:window-y="0"
     inkscape:window-maximized="1"
     inkscape:current-layer="svg5" />
  <title
     id="title1">ionicons-v5-i</title>
  <path
     d="M80,320V144a32,32,0,0,1,32-32h0a32,32,0,0,1,32,32V256"
     style="fill:none;stroke:#ff8c00;stroke-linecap:round;stroke-linejoin:round;stroke-width:32px"
     id="path1" />
  <path
     d="M144,256V80a32,32,0,0,1,32-32h0a32,32,0,0,1,32,32V240"
     style="fill:none;stroke:#ff8c00;stroke-linecap:round;stroke-linejoin:round;stroke-width:32px"
     id="path2" />
  <path
     d="M272,241V96a32,32,0,0,1,32-32h0a32,32,0,0,1,32,32V320"
     style="fill:none;stroke:#ff8c00;stroke-linecap:round;stroke-linejoin:round;stroke-width:32px"
     id="path3" />
  <path
     d="M208,240V48a32,32,0,0,1,32-32h0a32,32,0,0,1,32,32V240"
     style="fill:none;stroke:#ff8c00;stroke-linecap:round;stroke-linejoin:round;stroke-width:32px"
     id="path4" />
  <path
     d="M80,320c0,117.4,64,176,152,176s123.71-39.6,144-88l52.71-144c6.66-18.05,3.64-34.79-11.87-43.6h0c-15.52-8.82-35.91-4.28-44.31,11.68L336,320"
     style="fill:none;stroke:#ff8c00;stroke-linecap:round;stroke-linejoin:round;stroke-width:32px"
     id="path5" />
  <path
     style="fill:#ffffff;stroke-width:0.671141"
     d="m 341.94631,748.93946 c -100.5927,-8.2906 -166.0209,-71.07031 -185.56191,-178.05043 -1.8529,-10.14399 -3.8914,-25.96898 -5.11151,-39.68098 -1.05642,-11.87241 -1.67747,-300.99163 -0.66275,-308.5316 0.84102,-6.24921 3.06861,-10.95428 7.09032,-14.97599 9.76658,-9.76658 25.54817,-9.59337 34.87973,0.38283 1.7332,1.85293 3.96069,5.0959 4.94997,7.2066 l 1.7987,3.83763 0.33557,93.63873 0.33557,93.63873 2.19739,4.46308 c 2.74781,5.58101 8.04118,10.59291 13.40888,12.69583 2.9334,1.14923 5.25674,1.51483 9.70386,1.52698 5.50168,0.015 6.15406,-0.1408 11.04472,-2.63813 6.06581,-3.09739 10.00097,-7.39402 12.23112,-13.35465 L 250,405.31877 250.0133,265.91442 c 0.008,-87.52831 0.25831,-141.0989 0.67173,-143.95804 1.9958,-13.80265 14.17802,-23.084557 27.8608,-21.22776 7.95991,1.08018 15.30704,6.71554 18.98433,14.56127 l 1.7987,3.83763 0.33557,131.20805 0.33557,131.20805 1.78551,3.80883 c 2.38607,5.08993 6.37107,9.27244 11.46812,12.03652 4.04639,2.19431 4.45932,2.27546 11.57858,2.27546 6.73853,0 7.71858,-0.16501 11.23452,-1.89153 4.90767,-2.40994 9.29623,-6.7985 11.70617,-11.70617 l 1.89153,-3.85196 L 350,226.1745 350.33557,70.134228 351.89302,66.27741 c 2.14079,-5.301399 7.22164,-10.690852 12.55303,-13.315483 12.89096,-6.346205 28.20001,-0.155767 33.73548,13.641439 1.06748,2.660695 1.17068,13.767265 1.4829,159.585424 L 400,382.9145 l 2.19739,4.46335 c 4.45913,9.05742 12.52554,14.13287 22.63482,14.24203 11.1641,0.12054 19.94668,-5.83635 23.8037,-16.14518 1.35171,-3.61277 1.36421,-4.69172 1.37759,-118.88914 0.008,-66.59437 0.27435,-117.04771 0.63145,-119.51777 1.21354,-8.39421 6.49377,-15.67066 14.07249,-19.39264 3.27755,-1.60963 4.52571,-1.83622 10.11477,-1.83622 5.50154,0 6.89814,0.24484 10.18467,1.78551 5.3325,2.49977 9.54493,6.62384 12.13082,11.87635 l 2.18116,4.43041 0.33557,181.23659 0.33557,181.23658 2.19739,4.46338 c 4.55435,9.25087 12.5705,14.19393 23.06616,14.22346 5.36175,0.0151 6.18387,-0.17317 10.86979,-2.48908 5.22715,-2.58339 8.84483,-5.99512 11.15676,-10.52159 0.65987,-1.29195 13.80287,-32.70135 29.20667,-69.79866 15.4038,-37.09732 28.41802,-68.24562 28.92049,-69.21846 1.47016,-2.8464 6.84334,-7.13698 10.78436,-8.61151 5.30527,-1.98496 13.37778,-1.86448 18.58699,0.27739 7.53218,3.09701 11.84892,7.27934 13.89118,13.45862 1.32149,3.99844 1.02451,12.68668 -0.64119,18.75818 -0.78702,2.86872 -16.70043,46.93579 -35.36312,97.92683 -18.6627,50.99102 -37.40294,102.22439 -41.64497,113.8519 -11.4559,31.4009 -21.72717,51.65296 -35.50021,69.99646 -30.89377,41.14557 -74.08099,62.8579 -137.87929,69.31871 -12.03843,1.21913 -45.30829,1.75638 -55.7047,0.89946 z"
     id="path6"
     transform="scale(0.64)" />
  <path
     style="fill:#000000;stroke-width:0.671141"
     d="m 348.99329,799.28631 c -50.54346,-1.97933 -96.44031,-16.1941 -134.22637,-41.57154 -23.24473,-15.61135 -45.47881,-37.66531 -61.64013,-61.14074 -30.88853,-44.86773 -48.06383,-101.13694 -52.11424,-170.7351 -0.94718,-16.2754 -0.9076,-303.94949 0.0428,-310.78233 1.51584,-10.89848 5.78724,-22.11744 12.1206,-31.83512 3.65557,-5.60898 14.43659,-16.39 20.04557,-20.04557 19.01125,-12.39031 42.40269,-16.0564 62.69055,-9.82537 1.81202,0.55653 3.5486,1.01188 3.85906,1.01188 0.31047,0 0.56448,-7.67949 0.56448,-17.06553 0,-9.38604 0.32389,-19.39417 0.71975,-22.24029 1.51583,-10.89848 5.78723,-22.117439 12.12059,-31.835123 3.65557,-5.60898 14.43659,-16.39 20.04557,-20.045568 16.36671,-10.666769 35.17071,-14.838894 53.3557,-11.838259 5.30494,0.875349 11.79232,2.582191 15.20683,4.000955 0.89809,0.373161 1.31957,-0.248592 2.1838,-3.22144 1.57768,-5.427028 7.18192,-16.225195 11.2038,-21.587318 11.25245,-15.002201 27.12853,-24.9799607 45.8742,-28.830904 6.85876,-1.40900307 20.35795,-1.42827595 27.61869,-0.039432 23.09772,4.4181623 42.48929,19.127271 53.11159,40.286797 4.797,9.555574 6.97714,18.34086 7.92406,31.931604 l 0.40113,5.757107 5.32884,-1.54345 c 37.06762,-10.736308 77.837,11.001631 90.21046,48.099571 4.18457,12.54614 3.90947,3.82691 4.1709,132.19434 l 0.23849,117.11031 5.29469,-12.68549 c 3.63154,-8.70077 6.52241,-14.49358 9.2032,-18.44165 14.14842,-20.83673 38.2975,-32.67246 63.97563,-31.35514 19.97701,1.02485 37.05325,8.48676 50.72423,22.1653 9.05787,9.06287 14.85551,19.18145 18.21884,31.79716 1.5357,5.76036 1.74388,7.87274 1.79945,18.25893 0.0654,12.22621 -0.59206,17.12053 -3.7416,27.85235 -2.566,8.74345 -85.6072,234.8401 -89.10899,242.61745 -29.40437,65.30597 -72.92346,106.66792 -134.26777,127.61248 -27.26293,9.30826 -58.53104,14.78316 -89.59731,15.68805 -6.6443,0.19356 -14.19464,0.44242 -16.77853,0.55303 -2.58389,0.1106 -10.13423,-0.0118 -16.77852,-0.27195 z m 49.32886,-50.62067 c 76.74841,-7.50906 124.91108,-38.23047 156.78478,-100.00792 2.66628,-5.16779 6.05773,-12.2651 7.53655,-15.77181 3.07861,-7.30031 84.8452,-230.55788 85.96961,-234.73359 2.27294,-8.44108 2.03011,-18.44826 -0.57141,-23.54766 -1.77383,-3.47702 -6.79885,-7.9354 -11.34695,-10.06747 -3.4327,-1.60919 -4.571,-1.78542 -11.52694,-1.78461 -6.84947,8.2e-4 -8.0958,0.18724 -11.07383,1.65643 -1.84564,0.91053 -4.71477,3.02421 -6.37584,4.69708 -2.87248,2.89286 -4.37858,6.32286 -30.80519,70.15565 -15.28178,36.91276 -28.63811,68.95309 -29.68074,71.20076 -2.312,4.98412 -7.19811,9.74922 -12.52208,12.21192 -4.775,2.20877 -12.63355,2.48906 -17.93159,0.63957 -4.42024,-1.54306 -9.42091,-5.42149 -12.18478,-9.45029 -4.60274,-6.70928 -4.25817,8.56498 -4.25817,-188.75793 0,-173.01251 -0.04,-178.80603 -1.26217,-182.73284 -2.48937,-7.99833 -9.80398,-15.01619 -17.60066,-16.88658 -5.05363,-1.21234 -12.32936,-0.54954 -16.8907,1.53871 -5.00628,2.29195 -9.85409,6.91695 -12.27921,11.71483 l -1.95993,3.87756 -0.45465,114.7651 c -0.25006,63.12081 -0.5787,117.33222 -0.73031,120.4698 -0.3455,7.15042 -2.05928,11.00533 -7.18691,16.16602 -4.91131,4.94298 -9.6817,6.86796 -17.13882,6.91597 -4.4472,0.0286 -6.03008,-0.27196 -9.21842,-1.75057 -2.11713,-0.98183 -4.89946,-2.58613 -6.18297,-3.56511 -2.51746,-1.92016 -6.29995,-7.26878 -7.81791,-11.0549 -0.79545,-1.98406 -0.9939,-26.69567 -1.27734,-159.0604 L 400,68.791946 l -1.89349,-4.09703 c -2.39521,-5.182623 -7.58636,-10.351652 -12.87161,-12.81675 -3.49598,-1.630563 -4.82315,-1.87433 -10.06711,-1.849071 -10.40623,0.05013 -17.74044,4.340925 -22.53511,13.183932 l -2.29711,4.236637 -0.48348,114.429526 c -0.26591,62.93625 -0.56792,133.75839 -0.67114,157.38255 l -0.18766,42.95303 -1.64678,3.3557 c -2.29534,4.6773 -6.67717,9.13893 -11.25215,11.45705 -3.5573,1.80247 -4.46502,1.96577 -10.92657,1.96577 -6.1748,0 -7.50404,-0.21442 -10.73984,-1.73242 -4.71223,-2.21063 -9.45381,-6.95221 -11.86625,-11.86625 l -1.89056,-3.851 L 300.33557,250.33557 300,119.12752 l -1.49727,-3.69128 c -2.05666,-5.07039 -6.58462,-10.02174 -11.70202,-12.79625 -4.10919,-2.22788 -4.4956,-2.30442 -11.63292,-2.30442 -6.67386,0 -7.73905,0.17508 -11.0962,1.82385 -4.74077,2.3283 -9.58387,7.1714 -11.91217,11.91217 l -1.82385,3.71364 L 250,261.4094 l -0.33557,143.62416 -1.55745,3.85682 c -0.87724,2.17234 -3.02532,5.46289 -4.91832,7.53415 -12.22444,13.37548 -33.31568,9.90451 -40.99462,-6.74645 l -1.5229,-3.30224 -0.33557,-93.62416 L 200,219.12752 l -1.49727,-3.69128 c -2.05666,-5.07039 -6.58462,-10.02174 -11.70202,-12.79625 -4.10919,-2.22788 -4.4956,-2.30442 -11.63292,-2.30442 -6.67386,0 -7.73905,0.17508 -11.0962,1.82385 -4.74077,2.3283 -9.58387,7.1714 -11.91216,11.91217 l -1.82386,3.71364 v 156.37584 c 0,168.92744 -0.13559,161.60388 3.42946,185.2349 7.09192,47.00901 21.29928,84.05252 44.21102,115.27343 7.46281,10.16932 26.02179,29.01637 35.60776,36.16047 30.29011,22.57429 65.93898,35.30342 108.69807,38.81281 10.18289,0.83571 43.43822,0.25598 56.04027,-0.97704 z"
     id="path7"
     transform="scale(0.64)" />
  <path
     style="fill:#ff7f2a;stroke-width:0.671141"
     d="M 341.61074,748.93463 C 278.2774,743.42651 229.42648,717.18514 196.16517,670.80537 173.62167,639.37059 158.80478,597.41794 153.0249,548.65772 c -2.16927,-18.3004 -2.41061,-38.49518 -2.21366,-185.2349 l 0.19547,-145.63759 2.28128,-4.20693 c 2.64005,-4.86858 5.94206,-8.08249 10.94966,-10.65756 5.05291,-2.59837 13.92447,-3.01889 19.48494,-0.92359 5.34851,2.01542 10.62936,6.99272 13.40888,12.63814 l 2.19739,4.46307 0.33557,93.65331 0.33557,93.65331 2.19739,4.46308 c 4.52985,9.20049 12.50358,14.13273 22.9704,14.2086 5.03951,0.0365 6.22907,-0.20417 10.20181,-2.06423 5.51782,-2.58347 10.11484,-7.04795 12.50276,-12.1423 l 1.79207,-3.82315 0.47995,-104.02685 c 0.26397,-57.21476 0.56598,-122.29865 0.67114,-144.63087 l 0.19119,-40.60403 2.28128,-4.20694 c 2.64005,-4.86856 5.94206,-8.08249 10.94966,-10.65755 5.06412,-2.60413 13.92355,-3.019203 19.51039,-0.91407 5.40279,2.03578 11.10881,7.43663 13.63388,12.90472 l 1.94694,4.21613 0.33557,131.20805 0.33557,131.20805 1.85437,3.77449 c 2.77702,5.65251 6.60539,9.60437 11.7611,12.14045 4.2086,2.0702 4.91849,2.20575 11.54185,2.20392 5.84248,-0.002 7.60634,-0.25512 10.24587,-1.47256 4.44866,-2.05185 10.20397,-7.71352 12.41238,-12.2104 l 1.84886,-3.76475 0.44407,-156.04027 0.44408,-156.040272 1.44894,-3.856818 c 2.00972,-5.349493 6.98358,-10.627367 12.63651,-13.408878 4.06561,-2.000481 5.00814,-2.194917 10.51791,-2.169782 5.26714,0.02403 6.57251,0.27913 10.06432,1.966828 5.09373,2.461949 9.61389,6.971829 12.1357,12.108088 l 1.9729,4.01828 0.33557,157.061294 0.33557,157.06129 2.19739,4.46334 c 4.52968,9.20067 12.50338,14.13298 22.9704,14.20885 5.03951,0.0365 6.22907,-0.20416 10.20181,-2.06422 5.51782,-2.58347 10.11484,-7.04796 12.50276,-12.1423 l 1.79207,-3.82315 0.49052,-118.79195 c 0.36066,-87.34252 0.69873,-119.56152 1.27698,-121.6988 1.33328,-4.92798 5.32416,-10.32214 9.89519,-13.37456 12.49356,-8.34287 29.12645,-3.78816 35.82058,9.80903 l 2.18116,4.4304 0.33557,181.22234 0.33557,181.22233 1.7987,3.83763 c 6.2706,13.37873 21.87827,18.80679 34.98263,12.1663 3.61614,-1.83243 8.5415,-6.42269 10.07341,-9.38804 0.54493,-1.05484 13.71239,-32.52201 29.261,-69.92702 15.54862,-37.40501 28.70782,-68.85533 29.24266,-69.88959 1.54275,-2.98337 6.85964,-7.23249 10.98583,-8.7796 5.81641,-2.18087 14.32896,-1.70262 20.33446,1.14243 13.13957,6.22473 16.17566,17.7871 9.69374,36.91672 -3.5264,10.40723 -80.80083,221.39932 -83.36913,227.63325 -2.73917,6.64864 -10.694,22.70523 -14.5191,29.30636 -30.95186,53.41485 -78.5128,81.47733 -150.16205,88.60042 -12.6622,1.25886 -46.58089,1.821 -56.71141,0.93993 z"
     id="path8"
     transform="scale(0.64)" />
</svg>
