<?xml version="1.0" encoding="UTF-8" standalone="no"?>
<!-- Uploaded to: SVG Repo, www.svgrepo.com, Generator: SVG Repo Mixer Tools -->

<svg
   width="800px"
   height="800px"
   viewBox="0 0 64 64"
   stroke-width="3"
   stroke="#ff8c00"
   fill="none"
   version="1.1"
   id="svg6"
   sodipodi:docname="thumbs-up-orange-left-hand.svg"
   inkscape:version="1.4 (e7c3feb100, 2024-10-09)"
   xmlns:inkscape="http://www.inkscape.org/namespaces/inkscape"
   xmlns:sodipodi="http://sodipodi.sourceforge.net/DTD/sodipodi-0.dtd"
   xmlns="http://www.w3.org/2000/svg"
   xmlns:svg="http://www.w3.org/2000/svg">
  <defs
     id="defs6" />
  <sodipodi:namedview
     id="namedview6"
     pagecolor="#ffffff"
     bordercolor="#000000"
     borderopacity="0.25"
     inkscape:showpageshadow="2"
     inkscape:pageopacity="0.0"
     inkscape:pagecheckerboard="0"
     inkscape:deskcolor="#d1d1d1"
     inkscape:zoom="1.49"
     inkscape:cx="399.66443"
     inkscape:cy="400"
     inkscape:window-width="2560"
     inkscape:window-height="1403"
     inkscape:window-x="0"
     inkscape:window-y="0"
     inkscape:window-maximized="1"
     inkscape:current-layer="svg6" />
  <g
     transform="scale(-1,1) translate(-64,0)"
     id="g6">
    <path
       d="M6.81,22.48V54.2h10.1a3.62,3.62,0,0,0,3.61-3.62V26.1a3.62,3.62,0,0,0-3.62-3.62Z"
       id="path1" />
    <path
       d="M40.14,25.54a42.07,42.07,0,0,0,2-12.17c0-6.37-7-5.71-7-5.71s-2.85,14.6-14.6,18.77"
       id="path2" />
    <path
       d="M33.59,25.59H54s2.64.23,2.64,3.58-2.53,3.36-2.53,3.36h-5.2"
       id="path3" />
    <path
       d="M48.91,40H54s2.89,0,2.89-3.75S54,32.53,54,32.53"
       id="path4" />
    <path
       d="M48.91,47.54H54s2.89,0,2.89-3.75S54,40,54,40"
       id="path5" />
    <path
       d="M20.52,50.58l9.18,3s2.28.87,10.79.67,6.91-.14,9-.21c3.55,0,6.54-3.73,2.41-6.45"
       id="path6" />
  </g>
  <path
     style="fill:#000000;stroke-width:2.01342"
     d="m 276.51007,696.18047 c -3.32215,-0.1033 -27.0302,-0.65234 -52.68457,-1.2201 -25.65436,-0.56777 -49.10653,-1.33203 -52.11594,-1.69838 -30.35939,-3.6957 -55.3347,-23.29882 -62.38593,-48.96669 -1.87257,-6.81654 -1.61574,-18.90827 0.54883,-25.83892 0.92228,-2.95302 1.8926,-5.8674 2.15626,-6.4764 0.37289,-0.86126 -0.09,-1.28975 -2.08339,-1.92862 -4.71822,-1.51215 -13.930419,-6.63808 -18.134769,-10.0907 -9.953782,-8.17406 -17.38183,-21.83769 -20.045737,-36.87341 -1.349395,-7.61631 -1.347672,-23.50383 0.0034,-31.29081 1.811345,-10.43986 5.881832,-20.46933 11.190586,-27.57301 1.436417,-1.92208 2.611667,-3.64699 2.611667,-3.83313 0,-0.18615 -1.601573,-2.69072 -3.559052,-5.56572 C 73.312036,482.04757 69.641712,465.77322 70.91931,445.64174 71.846863,431.026 77.43616,415.70281 84.648027,408.00413 l 1.61818,-1.72741 -3.000925,-4.56899 c -3.341821,-5.08801 -6.399412,-12.91284 -8.170651,-20.90991 -1.755612,-7.92651 -1.619982,-25.37008 0.261236,-33.59797 4.949023,-21.64557 18.749151,-37.03568 39.409243,-43.94977 l 4.69799,-1.57223 77.01342,-0.18417 c 42.35738,-0.10129 77.01342,-0.34702 77.01342,-0.54608 0,-0.19904 -1.34373,-5.85443 -2.98607,-12.56751 -9.77447,-39.95315 -15.25014,-82.18275 -15.37579,-118.58143 -0.0379,-10.99021 0.22837,-15.94923 1.11725,-20.80537 5.03973,-27.53304 19.11001,-47.05152 42.78803,-59.356146 15.19313,-7.895328 34.69976,-12.455936 53.27652,-12.455936 5.34649,0 23.1967,1.224671 23.67516,1.624311 0.0804,0.06712 1.0801,4.636825 2.22165,10.154902 9.35679,45.229189 32.31124,97.855529 59.12484,135.552119 21.84989,30.7182 47.89481,55.20485 76.62378,72.03934 6.51393,3.81701 13.56048,7.47497 14.39949,7.47497 0.29738,0 1.78265,-2.50419 3.30059,-5.56487 7.46466,-15.05126 20.10096,-26.38578 35.71485,-32.03554 11.02547,-3.98949 11.31418,-4.00203 92.19353,-4.00637 l 73.65772,-0.004 v 216.79751 216.79751 l -77.01343,-0.20679 -77.01342,-0.20681 -5.63322,-1.50289 c -18.37592,-4.90251 -33.1482,-16.79326 -41.65164,-33.52695 -1.17158,-2.30552 -2.33727,-4.18864 -2.59043,-4.18473 -0.25315,0.004 -22.64141,7.25848 -49.75169,16.12123 -27.11027,8.86277 -52.17738,16.69521 -55.7047,17.40543 -13.97155,2.81317 -32.68602,4.8356 -56.07772,6.0602 -11.15814,0.58415 -74.55669,0.73046 -91.27516,0.21065 z m 103.3557,-37.7394 c 13.56976,-1.11242 30.65563,-3.29651 37.24832,-4.76147 3.13759,-0.69719 28.65772,-8.78013 56.71141,-17.96208 l 51.00671,-16.69445 0.16939,-137.88302 0.16938,-137.88302 -9.8987,-4.6822 c -53.97441,-25.53058 -96.23132,-67.3844 -130.76184,-129.51452 -14.01853,-25.22327 -28.88139,-61.39118 -36.54332,-88.92608 -0.87307,-3.13759 -1.63202,-5.78368 -1.68656,-5.88021 -0.26355,-0.46652 -11.43014,1.44016 -17.08593,2.91739 -10.23284,2.67273 -17.97833,6.81407 -24.14979,12.91236 -10.6282,10.50219 -14.06769,22.36971 -13.16367,45.41959 1.57177,40.07561 7.16,77.76349 16.94237,114.26174 l 3.10294,11.57718 h 33.80186 33.80186 v 18.45124 18.45125 l -127.73726,0.17291 -127.73727,0.17292 -3.27983,2.02781 c -4.16496,2.57506 -7.07828,6.3929 -8.73467,11.4466 -1.95519,5.96537 -1.79307,20.56864 0.28753,25.89943 1.88558,4.8311 3.57988,6.97056 6.83552,8.63147 2.4788,1.26459 4.07563,1.32355 35.8426,1.32355 h 33.24821 v 18.4268 18.4268 l -33.05369,0.19736 c -31.89669,0.19046 -33.15941,0.24646 -36.07382,1.59991 -8.66335,4.02323 -13.22674,16.84897 -11.49944,32.32001 1.27538,11.4233 4.36888,17.13387 11.18092,20.63986 l 3.91202,2.01342 32.76701,0.19763 32.767,0.19762 V 500 518.06113 l -32.71812,0.19762 -32.71812,0.19763 -3.15731,1.56959 c -9.30048,4.62353 -13.88974,17.40448 -12.00072,33.42167 1.2753,10.81353 4.70037,17.17655 11.08541,20.59425 2.68458,1.43697 3.28999,1.46467 36.1196,1.65305 l 33.38926,0.19159 v 18.43257 18.43258 h -15.41168 -15.41169 l -4.37924,4.09656 c -5.92545,5.54297 -8.76591,11.1649 -8.23585,16.30068 0.47219,4.57507 1.80834,7.1409 6.05924,11.63559 4.24761,4.49122 9.34685,7.6162 16.24473,9.95529 4.93975,1.67509 6.633,1.86758 21.47006,2.44075 59.7491,2.30819 169.65975,3.03252 191.27517,1.26052 z M 696.30872,479.19463 V 299.32886 l -55.20134,0.0164 c -34.75223,0.0103 -56.29163,0.26776 -58.14452,0.69492 -7.87586,1.81572 -15.26765,7.82246 -18.73743,15.22649 l -1.80932,3.86084 v 160.06711 160.06711 l 1.7987,3.83764 c 1.97167,4.20668 6.81884,9.79393 10.43612,12.02953 1.27086,0.78543 4.02114,1.97509 6.11173,2.64368 3.53947,1.13196 7.64669,1.21811 59.67358,1.25172 l 55.87248,0.0361 z"
     id="path7"
     transform="scale(0.08)" />
  <path
     style="fill:#ff7f2a;stroke-width:2.01342"
     d="m 288.92617,657.92867 c -29.00302,-0.19872 -86.74645,-1.46804 -102.93508,-2.26272 -11.36844,-0.55806 -14.08265,-0.90479 -18.38265,-2.34825 -6.15186,-2.06511 -9.83277,-4.16921 -14.26522,-8.15437 -4.88019,-4.38771 -7.01824,-8.34729 -6.98675,-12.93918 0.0324,-4.72994 1.732,-8.03027 7.07863,-13.74583 l 4.10135,-4.38436 h 16.03043 16.03044 V 594.2953 574.49664 l -27.349,-0.0468 c -15.04194,-0.0258 -30.71308,-0.26633 -34.82474,-0.5346 -6.78875,-0.44293 -7.70496,-0.66258 -9.96991,-2.39015 -4.99886,-3.8128 -7.60634,-10.13641 -8.73731,-21.18949 -0.88435,-8.64278 1.6265,-18.75844 6.11763,-24.64662 0.93132,-1.22102 3.2599,-3.11851 5.17462,-4.21665 l 3.48132,-1.99662 33.05369,-0.006 33.0537,-0.006 V 500 480.53691 H 156.4975 123.39768 l -4.11027,-2.51678 c -2.26065,-1.38422 -4.75512,-3.34947 -5.54327,-4.3672 -2.12961,-2.74997 -3.8592,-8.27195 -4.7385,-15.12839 -1.77473,-13.8386 2.63425,-26.54619 10.54018,-30.37899 l 3.27297,-1.58674 33.38926,-0.27376 33.38927,-0.27377 v -19.69366 -19.69366 l -34.06041,-0.19117 c -32.70504,-0.18358 -34.15387,-0.24487 -36.40939,-1.54043 -6.28891,-3.61231 -9.13014,-19.72788 -5.68063,-32.22084 1.17492,-4.25515 3.76,-7.73 7.97997,-10.72659 l 3.30606,-2.34761 H 252.8027 380.87248 V 319.80481 300.0123 l -34.02343,-0.17394 -34.02344,-0.17393 -2.89191,-11.07383 c -10.26224,-39.29676 -16.41086,-82.95404 -16.54141,-117.44966 -0.0609,-16.08783 0.72907,-20.8015 4.90609,-29.27452 4.62324,-9.37821 13.10131,-16.74635 24.18891,-21.02219 4.70457,-1.81427 21.95292,-5.82237 22.53801,-5.23728 0.13006,0.13006 1.6153,4.85815 3.30053,10.50685 8.85226,29.67188 25.08834,67.05397 40.39844,93.01372 29.23999,49.57925 63.14643,84.92808 105.23546,109.71222 3.32215,1.95625 11.40101,6.23745 17.95302,9.51378 l 11.91275,5.95696 v 136.90516 c 0,75.29784 -0.18548,136.90517 -0.41218,136.90517 -0.22671,0 -9.51362,3.00113 -20.63759,6.66919 -27.27708,8.99444 -65.88092,21.46738 -76.72957,24.7914 -17.51946,5.36796 -34.98599,7.37191 -71.0126,8.14732 -14.7651,0.31779 -30.92282,0.52538 -35.90604,0.4613 -4.98322,-0.0641 -18.57383,-0.18168 -30.20135,-0.26135 z"
     id="path8"
     transform="scale(0.08)" />
  <path
     style="fill:#ff7f2a;stroke-width:2.01342"
     d="m 585.12588,657.06266 c -8.28711,-0.94536 -15.42375,-6.3301 -19.75116,-14.90265 l -1.9519,-3.8667 V 479.19463 320.09595 l 2.06551,-4.09175 c 2.76284,-5.47316 7.63391,-10.21342 13.20915,-12.85445 l 4.524,-2.14304 55.87248,-0.21546 55.87248,-0.21545 v 178.57116 178.57116 l -52.85235,-0.0918 c -29.06879,-0.0505 -54.71348,-0.30415 -56.98821,-0.56364 z"
     id="path9"
     transform="scale(0.08)" />
</svg>
