<?xml version="1.0" encoding="UTF-8" standalone="no"?>
<!-- Uploaded to: SVG Repo, www.svgrepo.com, Generator: SVG Repo Mixer Tools -->

<svg
   width="800px"
   height="800px"
   viewBox="0 0 64 64"
   stroke-width="3"
   stroke="#ff8c00"
   fill="none"
   version="1.1"
   id="svg6"
   sodipodi:docname="thumbs-up-orange-right-hand.svg"
   inkscape:version="1.4 (e7c3feb100, 2024-10-09)"
   xmlns:inkscape="http://www.inkscape.org/namespaces/inkscape"
   xmlns:sodipodi="http://sodipodi.sourceforge.net/DTD/sodipodi-0.dtd"
   xmlns="http://www.w3.org/2000/svg"
   xmlns:svg="http://www.w3.org/2000/svg">
  <defs
     id="defs6" />
  <sodipodi:namedview
     id="namedview6"
     pagecolor="#ffffff"
     bordercolor="#000000"
     borderopacity="0.25"
     inkscape:showpageshadow="2"
     inkscape:pageopacity="0.0"
     inkscape:pagecheckerboard="0"
     inkscape:deskcolor="#d1d1d1"
     inkscape:zoom="1.49"
     inkscape:cx="399.66443"
     inkscape:cy="400"
     inkscape:window-width="2560"
     inkscape:window-height="1403"
     inkscape:window-x="0"
     inkscape:window-y="0"
     inkscape:window-maximized="1"
     inkscape:current-layer="svg6" />
  <path
     d="M6.81,22.48V54.2h10.1a3.62,3.62,0,0,0,3.61-3.62V26.1a3.62,3.62,0,0,0-3.62-3.62Z"
     id="path1" />
  <path
     d="M40.14,25.54a42.07,42.07,0,0,0,2-12.17c0-6.37-7-5.71-7-5.71s-2.85,14.6-14.6,18.77"
     id="path2" />
  <path
     d="M33.59,25.59H54s2.64.23,2.64,3.58-2.53,3.36-2.53,3.36h-5.2"
     id="path3" />
  <path
     d="M48.91,40H54s2.89,0,2.89-3.75S54,32.53,54,32.53"
     id="path4" />
  <path
     d="M48.91,47.54H54s2.89,0,2.89-3.75S54,40,54,40"
     id="path5" />
  <path
     d="M20.52,50.58l9.18,3s2.28.87,10.79.67,6.91-.14,9-.21c3.55,0,6.54-3.73,2.41-6.45"
     id="path6" />
  <path
     style="fill:#000000;stroke-width:2.01342"
     d="m 436.91275,696.24721 c -1.84564,-0.13612 -8.64094,-0.56706 -15.10067,-0.95764 -25.32495,-1.53123 -44.42969,-4.38423 -57.7788,-8.62838 -4.58072,-1.45637 -27.34668,-8.86636 -50.59101,-16.46665 -23.24434,-7.60028 -42.47831,-13.8187 -42.74216,-13.8187 -0.26385,0 -1.4383,1.88633 -2.60988,4.19185 -3.40672,6.70399 -6.66654,11.24546 -11.70593,16.30832 -8.13502,8.1729 -18.60486,14.193 -29.94571,17.21863 l -5.63322,1.50289 -77.01342,0.20681 -77.013427,0.20679 V 479.21362 262.41611 l 73.657717,0.005 c 58.95591,0.004 74.88095,0.18845 79.78622,0.9251 20.90773,3.13985 38.37227,15.75744 47.71532,34.47284 1.70454,3.41443 3.35768,6.20806 3.67366,6.20806 0.87392,0 7.83973,-3.61059 14.43326,-7.48119 37.71795,-22.14156 69.29234,-55.79605 95.37218,-101.65523 5.44235,-9.56992 17.03372,-33.79705 21.51582,-44.97025 8.2233,-20.49941 15.06515,-42.61311 18.86062,-60.959759 1.14155,-5.518077 2.14129,-10.087783 2.22165,-10.154902 0.48819,-0.407766 18.373,-1.623394 23.8165,-1.618804 17.70423,0.01493 37.0902,4.35417 51.49739,11.526874 24.57301,12.233811 39.28538,32.196481 44.42582,60.279701 0.88888,4.85614 1.15519,9.81516 1.11725,20.80537 -0.12545,36.33911 -5.61422,78.66766 -15.37655,118.58143 -1.64192,6.71308 -2.98531,12.36847 -2.98531,12.56751 0,0.19906 34.65604,0.44479 77.01342,0.54608 l 77.01342,0.18417 4.69799,1.57223 c 20.66009,6.91409 34.46021,22.3042 39.40924,43.94977 1.88122,8.22789 2.01685,25.67146 0.26124,33.59797 -1.75534,7.92527 -4.82041,15.80907 -8.0695,20.7559 l -2.89977,4.41498 2.9249,3.89485 c 8.38961,11.17175 12.37831,25.07821 12.37831,43.15658 0,18.0557 -3.62493,31.10735 -11.86985,42.73772 -1.61697,2.28091 -2.93994,4.33246 -2.93994,4.559 0,0.22653 1.1756,1.9845 2.61245,3.90658 5.30747,7.09985 9.68474,18.15325 11.46783,28.95832 1.11036,6.72858 0.96117,22.51046 -0.28045,29.66669 -2.65074,15.27775 -9.98008,28.85107 -20.03992,37.11222 -4.20435,3.45262 -13.41655,8.57855 -18.13478,10.0907 -1.9934,0.63887 -2.45627,1.06736 -2.08338,1.92862 0.26367,0.609 1.23398,3.52338 2.15626,6.4764 2.16457,6.93065 2.4214,19.02238 0.54883,25.83892 -5.79583,21.09799 -23.74689,38.3171 -47.81888,45.86907 -10.07864,3.16192 -17.22387,3.71146 -62.99172,4.84469 -39.6826,0.98256 -135.20163,1.80988 -142.95302,1.23815 z m 115.10067,-37.52634 c 68.55884,-1.4857 74.26869,-1.76755 80.86604,-3.99168 6.8862,-2.32151 11.99004,-5.44597 16.24473,-9.94468 4.7999,-5.07518 5.86457,-7.35815 5.86193,-12.56974 -0.003,-5.64034 -1.70045,-8.93247 -7.70015,-14.93289 l -4.52966,-4.5302 H 627.25064 611.74497 V 594.2953 575.83893 h 32.18959 c 30.74086,0 32.35403,-0.0615 35.84341,-1.36708 9.54141,-3.5699 14.4088,-16.41761 12.54664,-33.11753 -1.25621,-11.26586 -4.94364,-17.82735 -11.98609,-21.32835 l -3.15731,-1.56959 -32.71812,-0.19763 -32.71812,-0.19762 V 500 481.93887 l 32.767,-0.19762 32.767,-0.19763 3.91203,-2.01342 c 6.81205,-3.50599 9.90554,-9.21656 11.18092,-20.63986 1.72729,-15.47104 -2.83609,-28.29678 -11.49944,-32.32001 -2.91441,-1.35345 -4.17713,-1.40945 -36.07382,-1.59991 l -33.05369,-0.19736 v -18.4268 -18.4268 l 33.38926,-0.011 c 33.37334,-0.011 33.39053,-0.0118 36.05398,-1.52029 5.74002,-3.25104 8.07306,-9.60997 8.05641,-21.9586 -0.0174,-12.88389 -2.71516,-19.2945 -10.02047,-23.81112 l -3.27982,-2.02781 -127.73727,-0.17292 -127.73726,-0.17291 v -18.45125 -18.45124 h 33.80186 33.80186 l 3.10294,-11.57718 c 9.2062,-34.34859 14.51231,-68.42695 16.58917,-106.54362 0.89186,-16.36833 0.53921,-24.73445 -1.37889,-32.71164 -3.90601,-16.24476 -15.35743,-27.50962 -33.26549,-32.72357 -5.33388,-1.55296 -19.03666,-4.061 -19.40469,-3.55166 -0.0775,0.1072 -0.98429,3.21505 -2.01518,6.90633 -7.63535,27.3398 -22.18325,62.65692 -36.25202,88.00701 -34.25217,61.71796 -76.77173,103.82163 -130.72125,129.44265 l -9.89243,4.69799 0.16605,137.85416 0.16606,137.85416 52.01342,16.99661 c 28.60738,9.34813 54.27852,17.45444 57.04698,18.01401 10.93382,2.20999 25.4631,3.66689 52.68456,5.28286 10.59559,0.629 74.35157,0.31353 115.10067,-0.56952 z m -330.68149,-1.56301 c 5.43647,-2.19428 11.28092,-7.77028 14.05888,-13.41309 l 2.19308,-4.4548 V 479.20874 319.12752 l -1.80932,-3.86084 c -3.46978,-7.40403 -10.86157,-13.41077 -18.73743,-15.22649 -1.85289,-0.42716 -23.39229,-0.68459 -58.14452,-0.69492 l -55.20134,-0.0164 V 479.20933 659.0898 l 56.87919,-0.18248 56.87919,-0.18249 z"
     id="path7"
     transform="scale(0.08)" />
  <path
     style="fill:#ff9955;stroke-width:2.01342"
     d="M 105.03356,479.14696 V 300.5758 l 55.87248,0.21545 55.87248,0.21546 4.524,2.14304 c 5.57524,2.64103 10.44631,7.38129 13.20915,12.85445 l 2.06551,4.09175 v 159.15339 159.15338 l -2.17332,4.12078 c -3.01009,5.70737 -8.2423,10.80136 -13.58068,13.2219 l -4.35076,1.97272 h -55.71943 -55.71943 z"
     id="path8"
     transform="scale(0.08)" />
  <path
     style="fill:#ff7f2a;stroke-width:2.01342"
     d="m 431.54362,657.69311 c -16.3025,-1.14414 -32.86555,-2.70629 -39.59731,-3.73463 -8.46403,-1.29298 -31.19205,-8.31 -97.14765,-29.99325 L 276.1745,617.84244 V 481.07646 344.31048 l 11.91275,-5.95696 c 14.30485,-7.15313 21.16088,-11.13021 32.71812,-18.97929 36.38462,-24.71056 66.77905,-58.90816 93.04467,-104.68706 14.173,-24.70241 29.1646,-59.75045 37.43899,-87.52656 1.83606,-6.16346 3.46053,-11.32852 3.60993,-11.47791 0.43282,-0.43282 14.16448,2.35851 19.11491,3.88562 13.15887,4.05926 23.00299,12.15425 28.02945,23.04913 4.39263,9.52106 5.49539,19.47969 4.38477,39.59732 -2.03851,36.92514 -7.32061,71.5663 -16.01559,105.03355 l -3.22577,12.41611 -34.02961,0.17393 -34.0296,0.17394 v 19.79251 19.79251 H 547.15661 675.1857 l 3.56007,2.39749 c 4.14914,2.79418 7.11999,7.10687 8.12553,11.79553 1.12191,5.23128 0.89326,18.29652 -0.40092,22.90895 -1.3438,4.78924 -4.22122,8.0908 -7.95474,9.1273 -1.78792,0.49636 -13.54071,0.74435 -35.39483,0.74685 l -32.71813,0.004 v 19.71705 19.71705 l 33.38927,0.27377 33.38926,0.27376 3.27297,1.58674 c 7.89886,3.82937 12.22286,16.24893 10.52344,30.22581 -1.38163,11.36314 -3.97441,16.07895 -11.11185,20.21049 l -3.3557,1.94247 -33.05369,0.006 -33.0537,0.006 V 500 519.46309 h 33.08339 33.08337 l 3.63412,2.18121 c 6.69059,4.01571 9.37837,9.17663 10.77918,20.69766 1.68231,13.83607 -2.6768,26.343 -10.52856,30.20801 l -3.27297,1.6111 -33.38926,0.19711 -33.38927,0.1971 v 19.76934 19.76934 h 16.04793 16.04793 l 4.15535,4.5302 c 5.50794,6.0048 6.70181,8.45748 6.70181,13.76804 0,3.52462 -0.3282,4.77529 -1.90609,7.26335 -3.97768,6.27217 -12.58531,12.08668 -21.2235,14.33664 -4.87488,1.26975 -22.26277,2.14621 -60.42745,3.04592 -41.07718,0.96837 -127.92701,1.37984 -138.25504,0.655 z"
     id="path9"
     transform="scale(0.08)" />
  <path
     style="fill:#ff7f2a;stroke-width:2.01342"
     d="M 106.37584,479.19463 V 302.01342 h 54.71474 54.71474 l 4.73381,2.38391 c 5.53756,2.78867 9.54182,6.55654 12.54361,11.80313 l 2.15216,3.76159 v 159.23258 159.23258 l -2.07077,3.61933 c -2.92039,5.10431 -7.767,9.82857 -12.57096,12.2536 l -4.11194,2.0757 h -55.0527 -55.05269 z"
     id="path10"
     transform="scale(0.08)" />
</svg>
